<svg width="65" height="80" viewBox="0 0 65 80" fill="none" xmlns="http://www.w3.org/2000/svg">
<path fill-rule="evenodd" clip-rule="evenodd" d="M0 26.4794C0 11.853 14.4286 0 32.2237 0C50.0189 0 64.4423 11.853 64.4579 26.4794C64.4579 27.0985 64.4215 27.7125 64.3694 28.3213L63.922 37.9109C63.7971 40.4761 62.9958 42.9633 61.5961 45.1174L57.0485 52.1002C56.679 52.6621 56.4865 53.3177 56.4865 53.9889V58.8332C56.4865 60.2849 55.5811 61.5805 54.2231 62.08L50.2322 64.973C49.0667 65.4049 48.2185 66.4299 48.0156 67.6579L47.2872 71.5187H42.2556C41.7197 71.5187 41.2878 71.0868 41.2878 70.5509V68.4852C41.2878 67.8556 40.7207 67.3561 40.0702 67.4602C39.5603 67.5434 39.2065 68.0221 39.2065 68.5424V70.5509C39.2065 71.0868 38.7746 71.5187 38.2387 71.5187H34.2374C33.7015 71.5187 33.2696 71.0868 33.2696 70.5509V68.4852C33.2696 67.8556 32.7024 67.3561 32.052 67.4602C31.5421 67.5434 31.1883 68.0221 31.1883 68.5424V70.5509C31.1883 71.0868 30.7564 71.5187 30.2205 71.5187H26.8488C26.3128 71.5187 25.881 71.0868 25.881 70.5509V68.4852C25.881 67.8556 25.3138 67.3561 24.6634 67.4602C24.1535 67.5434 23.7997 68.0221 23.7997 68.5424V70.5509C23.7997 71.0868 23.3678 71.5187 22.8319 71.5187H17.1707L16.4423 67.6579C16.2394 66.4299 15.3964 65.4049 14.2257 64.973L10.2348 62.08C8.87675 61.5753 7.97138 60.2849 7.97138 58.8332V53.9889C7.97138 53.3177 7.77366 52.6621 7.40943 52.1002L2.86179 45.1174C1.45691 42.9633 0.65561 40.4761 0.535935 37.9109L0.0884553 28.3213C0.0364228 27.7125 0 27.0985 0 26.4794ZM15.0322 51.9805L11.853 55.1285C11.2859 55.6904 11.2963 56.6166 11.8894 57.1629C12.4514 57.6833 13.3515 57.6052 13.8979 57.0641L17.0146 53.9733C17.8628 53.1356 19.2312 53.1408 20.0689 53.9889L23.2221 57.1733C23.7841 57.7405 24.7102 57.7301 25.2566 57.1369C25.7769 56.575 25.6989 55.6748 25.1577 55.1285L22.067 52.0117C21.2293 51.1636 21.2345 49.7951 22.0826 48.9574L25.267 45.8042C25.8341 45.2423 25.8237 44.3161 25.2306 43.7698C24.6686 43.2494 23.7685 43.3275 23.2221 43.8686L20.1054 46.9594C19.2572 47.7971 17.8888 47.7919 17.0511 46.9437L13.9603 43.827C13.4192 43.2807 12.519 43.1922 11.9519 43.7073C11.3535 44.2485 11.3327 45.1746 11.8946 45.7418L15.0478 48.9262C15.8855 49.7743 15.8803 51.1428 15.0322 51.9805ZM42.3753 51.9805L39.1961 55.1285C38.6289 55.6904 38.6394 56.6166 39.2325 57.1629C39.7945 57.6833 40.6946 57.6052 41.241 57.0641L44.3577 53.9733C45.2059 53.1356 46.5743 53.1408 47.412 53.9889L50.5652 57.1733C51.1272 57.7405 52.0533 57.7301 52.5997 57.1369C53.12 56.575 53.042 55.6748 52.5008 55.1285L49.4101 52.0117C48.5724 51.1636 48.5776 49.7951 49.4257 48.9574L52.6101 45.8042C53.1772 45.2423 53.1668 44.3161 52.5737 43.7698C52.0117 43.2494 51.1115 43.3275 50.5652 43.8686L47.4485 46.9594C46.6003 47.7971 45.2319 47.7919 44.3941 46.9437L41.3034 43.827C40.7623 43.2807 39.8621 43.1922 39.295 43.7073C38.6966 44.2485 38.6758 45.1746 39.2377 45.7418L42.3909 48.9262C43.2286 49.7743 43.2234 51.1428 42.3753 51.9805ZM41.2774 75.52V74.5522H41.2722C41.2722 74.0162 41.7041 73.5844 42.24 73.5844H46.8761L45.6898 77.1018C45.414 78.772 43.9675 80 42.2765 80H22.1555C20.4592 80 19.0179 78.772 18.7421 77.1018L17.5558 73.5844H22.8215C23.3574 73.5844 23.7893 74.0162 23.7893 74.5522V75.5772C23.7893 76.2068 24.3565 76.7063 25.0069 76.6023C25.5168 76.519 25.8706 76.0403 25.8706 75.52V74.5522C25.8706 74.0162 26.3025 73.5844 26.8384 73.5844H30.2101C30.746 73.5844 31.1779 74.0162 31.1779 74.5522V75.5772C31.1779 76.2068 31.7451 76.7063 32.3955 76.6023C32.9054 76.519 33.2592 76.0403 33.2592 75.52V74.5522C33.2592 74.0162 33.6911 73.5844 34.227 73.5844H38.2283C38.7643 73.5844 39.1961 74.0162 39.1961 74.5522V75.5772C39.1961 76.2068 39.7633 76.7063 40.4137 76.6023C40.9236 76.519 41.2774 76.0403 41.2774 75.52Z" fill="white" fill-opacity="0.15"/>
<rect x="16" y="5" width="32" height="32" rx="16" fill="white" fill-opacity="0.4"/>
<path d="M34.2451 28H31.3447V15.958H28.2402V13.4121H34.2451V28Z" fill="#303030"/>
</svg>
