<svg xmlns="http://www.w3.org/2000/svg" width="80" height="80" fill="none" viewBox="0 0 80 80">
  <circle cx="40" cy="40" r="40" fill="#fff" fill-opacity=".15"/>
  <path fill="#fff" fill-opacity=".15" fill-rule="evenodd" d="M72.989 62.628A39.815 39.815 0 0 0 80 40a39.818 39.818 0 0 0-7.33-23.086H7.33A39.817 39.817 0 0 0 0 40a39.815 39.815 0 0 0 7.011 22.628H72.99Z" clip-rule="evenodd"/>
  <path fill="#fff" fill-opacity=".4" d="M24 40c0-8.837 7.163-16 16-16s16 7.163 16 16-7.163 16-16 16-16-7.163-16-16Z"/>
  <path fill="#303030" d="M35.112 47h-2.9V34.958h-3.105v-2.546h6.005V47Zm2.825-7.24c0-2.428.666-4.63 2.117-6.059.934-.934 2.352-1.504 4.028-1.504 4.33 0 6.155 3.545 6.155 7.563 0 2.062-.483 3.846-1.46 5.22-.978 1.386-2.622 2.235-4.695 2.235-4.286 0-6.145-3.438-6.145-7.455Zm7.606-4.555a2.668 2.668 0 0 0-1.461-.408c-.548 0-1.031.14-1.45.408a2.928 2.928 0 0 0-1 1.107c-.483.945-.73 2.094-.73 3.394 0 2.578.903 4.91 3.18 4.91s3.19-2.332 3.19-4.91c-.032-1.912-.472-3.674-1.729-4.5Z"/>
</svg>
