<svg xmlns="http://www.w3.org/2000/svg" width="81" height="80" fill="none" viewBox="0 0 81 80">
  <circle cx="40.307" cy="40" r="40" fill="#fff" fill-opacity=".15"/>
  <path fill="#fff" fill-opacity=".15" fill-rule="evenodd" d="M73.295 62.628A39.815 39.815 0 0 0 80.307 40a39.818 39.818 0 0 0-7.33-23.086H7.636A39.817 39.817 0 0 0 .307 40a39.815 39.815 0 0 0 7.01 22.628h65.978Z" clip-rule="evenodd"/>
  <path fill="#fff" fill-opacity=".4" d="M24.307 40c0-8.837 7.163-16 16-16 8.836 0 16 7.163 16 16s-7.164 16-16 16c-8.837 0-16-7.163-16-16Z"/>
  <path fill="#303030" d="M36.504 47h-2.9V34.958h-3.105v-2.546h6.005V47Zm5.017-10.033-2.439-1.16a5.469 5.469 0 0 1 1.977-2.622 5.116 5.116 0 0 1 3.04-.988c1.525 0 2.782.44 3.76 1.322.977.88 1.471 2.008 1.471 3.373.054 1.203-.548 2.266-1.224 3.04-.409.494-1.236 1.17-1.709 1.536-.257.193-.58.43-.956.709l-.343.247c-1.386.999-2.16 1.676-2.32 2.04h6.745V47H39.404v-1.214c0-.677.226-1.375.505-1.923.258-.515.881-1.235 1.257-1.633.204-.204.462-.45.795-.72.333-.268.59-.483.795-.633.193-.15.462-.344.795-.59.988-.72 1.697-1.333 2.137-1.816.44-.484.656-1 .656-1.547 0-1.3-.881-2.116-2.213-2.116-1.214 0-2.127.827-2.61 2.159Z"/>
</svg>
