<svg xmlns="http://www.w3.org/2000/svg" width="80" height="80" fill="none" viewBox="0 0 80 80">
  <circle cx="40" cy="40" r="40" fill="#fff" fill-opacity=".15"/>
  <path fill="#fff" fill-opacity=".15" fill-rule="evenodd" d="M72.989 62.628A39.815 39.815 0 0 0 80 40a39.818 39.818 0 0 0-7.33-23.086H7.33A39.817 39.817 0 0 0 0 40a39.815 39.815 0 0 0 7.011 22.628H72.99Z" clip-rule="evenodd"/>
  <path fill="#fff" fill-opacity=".4" d="M24 40c0-8.837 7.163-16 16-16s16 7.163 16 16-7.163 16-16 16-16-7.163-16-16Z"/>
  <path fill="#303030" d="M36.133 47h-2.9V34.958h-3.105v-2.546h6.005V47Zm4.941-10.065-2.342-1.279c.527-1.257 1.386-2.277 2.804-2.954a5.38 5.38 0 0 1 2.31-.505c1.332 0 2.567.398 3.523 1.085.946.699 1.547 1.837 1.547 3.18 0 .634-.193 1.246-.59 1.815-.398.58-.87 1-1.44 1.268.655.215 1.203.634 1.654 1.267.44.634.666 1.311.666 2.01 0 1.374-.634 2.556-1.611 3.276-.978.72-2.235 1.117-3.535 1.117-1.192 0-2.266-.312-3.211-.935-.946-.623-1.644-1.493-2.106-2.62l2.342-1.29c.516 1.375 1.633 2.235 2.933 2.235.612 0 1.127-.172 1.568-.516.43-.333.645-.784.645-1.354 0-1.213-.967-1.976-2.439-1.976h-2.127v-2.267h2.127c.623 0 1.139-.182 1.536-.537.398-.354.602-.827.602-1.418 0-.505-.194-.924-.57-1.246-.386-.322-.891-.483-1.504-.483-.633 0-1.203.204-1.686.612-.494.408-.86.913-1.096 1.515Z"/>
</svg>
