<svg xmlns="http://www.w3.org/2000/svg" width="81" height="80" fill="none" viewBox="0 0 81 80">
  <circle cx="40.307" cy="40" r="40" fill="#fff" fill-opacity=".15"/>
  <path fill="#fff" fill-opacity=".15" fill-rule="evenodd" d="M73.295 62.628A39.815 39.815 0 0 0 80.307 40a39.818 39.818 0 0 0-7.33-23.086H7.636A39.817 39.817 0 0 0 .307 40a39.815 39.815 0 0 0 7.01 22.628h65.978Z" clip-rule="evenodd"/>
  <path fill="#fff" fill-opacity=".4" d="M24.307 40c0-8.837 7.163-16 16-16 8.836 0 16 7.163 16 16s-7.164 16-16 16c-8.837 0-16-7.163-16-16Z"/>
  <path fill="#303030" d="M36.46 47h-2.9V34.958h-3.104v-2.546h6.005V47Zm7.789.215c-2.535 0-4.383-1.29-5.339-3.61l2.342-1.213c.57 1.407 1.6 2.212 2.933 2.212.72 0 1.32-.214 1.804-.655.473-.43.71-.977.71-1.643 0-.699-.237-1.268-.71-1.698-.483-.418-1.106-.633-1.89-.633-.967 0-1.805.354-2.525 1.074l-1.987-.892.86-7.745h8.496v2.557H42.8l-.344 3.212c.473-.398 1.386-.71 2.374-.71 1.418 0 2.578.441 3.491 1.311.903.881 1.354 2.041 1.354 3.48 0 1.45-.505 2.633-1.526 3.556-1.02.935-2.32 1.397-3.899 1.397Z"/>
</svg>
