<svg xmlns="http://www.w3.org/2000/svg" width="81" height="80" fill="none" viewBox="0 0 81 80">
  <circle cx="40.653" cy="40" r="40" fill="#fff" fill-opacity=".15"/>
  <rect width="32" height="32" x="24.653" y="24" fill="#fff" fill-opacity=".4" rx="16"/>
  <path fill="#303030" d="m37.785 36.967-2.438-1.16a5.468 5.468 0 0 1 1.976-2.622 5.116 5.116 0 0 1 3.04-.988c1.526 0 2.782.44 3.76 1.322.978.88 1.472 2.008 1.472 3.373.053 1.203-.548 2.266-1.225 3.04-.408.494-1.235 1.17-1.708 1.536-.258.193-.58.43-.956.709l-.344.247c-1.385.999-2.159 1.676-2.32 2.04h6.746V47h-10.12v-1.214c0-.677.227-1.375.506-1.923.258-.515.88-1.235 1.257-1.633.204-.204.462-.45.795-.72.333-.268.59-.483.794-.633.194-.15.462-.344.795-.59.989-.72 1.698-1.333 2.138-1.816.44-.484.655-1 .655-1.547 0-1.3-.88-2.116-2.212-2.116-1.214 0-2.127.827-2.61 2.159Z"/>
</svg>
