<svg xmlns="http://www.w3.org/2000/svg" width="81" height="80" fill="none" viewBox="0 0 81 80">
  <circle cx="40.307" cy="40" r="40" fill="#fff" fill-opacity=".15"/>
  <rect width="32" height="32" x="24.307" y="24" fill="#fff" fill-opacity=".4" rx="16"/>
  <path fill="#303030" d="m37.299 36.935-2.342-1.279c.526-1.257 1.386-2.277 2.804-2.954a5.38 5.38 0 0 1 2.31-.505c1.331 0 2.567.398 3.523 1.085.945.699 1.547 1.837 1.547 3.18 0 .634-.194 1.246-.591 1.815-.398.58-.87 1-1.44 1.268.656.215 1.203.634 1.655 1.267.44.634.666 1.311.666 2.01 0 1.374-.634 2.556-1.612 3.276-.977.72-2.234 1.117-3.534 1.117-1.192 0-2.266-.312-3.212-.935-.945-.623-1.643-1.493-2.105-2.62l2.342-1.29c.515 1.375 1.632 2.235 2.932 2.235.613 0 1.128-.172 1.569-.516.43-.333.644-.784.644-1.354 0-1.213-.967-1.976-2.438-1.976H37.89v-2.267h2.127c.623 0 1.138-.182 1.536-.537.397-.354.601-.827.601-1.418 0-.505-.193-.924-.569-1.246-.387-.322-.892-.483-1.504-.483-.634 0-1.203.204-1.687.612a3.67 3.67 0 0 0-1.095 1.515Z"/>
</svg>
