<svg xmlns="http://www.w3.org/2000/svg" width="81" height="81" fill="none" viewBox="0 0 81 81">
  <circle cx="40.653" cy="40.653" r="40" fill="#fff" fill-opacity=".15"/>
  <path fill="#fff" fill-opacity=".4" d="M24.653 40.653c0-8.836 7.164-16 16-16 8.837 0 16 7.164 16 16 0 8.837-7.163 16-16 16-8.836 0-16-7.163-16-16Z"/>
  <path fill="#303030" d="M40.514 47.868c-2.536 0-4.383-1.289-5.34-3.61l2.343-1.213c.569 1.407 1.6 2.213 2.932 2.213.72 0 1.322-.215 1.805-.656.473-.43.709-.977.709-1.643 0-.698-.236-1.268-.71-1.697-.483-.42-1.105-.634-1.89-.634-.966 0-1.804.354-2.524 1.074l-1.987-.892.859-7.745h8.497v2.557h-6.145l-.343 3.212c.472-.398 1.386-.709 2.374-.709 1.418 0 2.578.44 3.491 1.31.902.881 1.353 2.042 1.353 3.481 0 1.45-.504 2.632-1.525 3.556-1.02.934-2.32 1.396-3.9 1.396Z"/>
</svg>
