<svg xmlns="http://www.w3.org/2000/svg" width="81" height="81" fill="none" viewBox="0 0 81 81">
  <circle cx="40.307" cy="40.307" r="40" fill="#fff" fill-opacity=".15"/>
  <path fill="#fff" fill-opacity=".15" fill-rule="evenodd" d="M73.295 62.935a39.816 39.816 0 0 0 7.012-22.628 39.817 39.817 0 0 0-7.33-23.086H7.636a39.817 39.817 0 0 0-7.33 23.086 39.815 39.815 0 0 0 7.01 22.628h65.978Z" clip-rule="evenodd"/>
  <path fill="#fff" fill-opacity=".4" d="M24.307 40.307c0-8.837 7.163-16 16-16 8.836 0 16 7.163 16 16 0 8.836-7.164 16-16 16-8.837 0-16-7.164-16-16Z"/>
  <path fill="#303030" d="M39.587 42.333c-1.536 0-2.772-.44-3.728-1.321-.956-.881-1.428-2.03-1.428-3.46 0-1.514.515-2.728 1.536-3.662 1.02-.924 2.374-1.386 4.039-1.386 2.073 0 3.674.752 4.587 2.009.913 1.257 1.364 2.846 1.364 4.77 0 2.567-.58 4.586-1.73 6.047-1.149 1.461-2.846 2.192-5.091 2.192-1.59 0-2.9-.366-3.943-1.096l.828-2.32c.934.622 1.933.934 3.007.934 1.429 0 2.621-.559 3.373-1.826.376-.634.57-1.397.602-2.299-.752.945-1.89 1.418-3.416 1.418Zm.494-7.348c-.806 0-1.472.226-1.977.677-.504.462-.762 1.064-.762 1.805 0 .752.247 1.343.752 1.783.494.44 1.15.666 1.976.666.785 0 1.429-.236 1.923-.709a2.308 2.308 0 0 0 .741-1.73 2.38 2.38 0 0 0-.74-1.761c-.495-.484-1.129-.73-1.913-.73Z"/>
</svg>
