<svg xmlns="http://www.w3.org/2000/svg" width="80" height="80" fill="none" viewBox="0 0 80 80">
  <circle cx="40" cy="40" r="39.5" fill="#99999C" fill-opacity=".55"/>
  <circle cx="40" cy="40" r="39.5" fill="url(#a)"/>
  <circle cx="40" cy="40" r="39.5" stroke="#939393"/>
  <mask id="c" fill="#fff">
    <path fill-rule="evenodd" d="M72.989 62.628A39.814 39.814 0 0 0 79.999 40a39.816 39.816 0 0 0-7.33-23.086H7.33A39.817 39.817 0 0 0 0 40a39.815 39.815 0 0 0 7.01 22.628h65.98Z" clip-rule="evenodd"/>
  </mask>
  <path fill="#1F2026" fill-rule="evenodd" d="M72.989 62.628A39.814 39.814 0 0 0 79.999 40a39.816 39.816 0 0 0-7.33-23.086H7.33A39.817 39.817 0 0 0 0 40a39.815 39.815 0 0 0 7.01 22.628h65.98Z" clip-rule="evenodd"/>
  <path fill="url(#b)" fill-rule="evenodd" d="M72.989 62.628A39.814 39.814 0 0 0 79.999 40a39.816 39.816 0 0 0-7.33-23.086H7.33A39.817 39.817 0 0 0 0 40a39.815 39.815 0 0 0 7.01 22.628h65.98Z" clip-rule="evenodd"/>
  <path fill="#5C3E68" d="M72.989 62.628v1h.526l.298-.433-.824-.567Zm-.32-45.714.817-.578-.3-.422h-.517v1Zm-65.339 0v-1h-.517l-.299.422.816.578Zm-.319 45.714-.824.567.298.433h.526v-1ZM79 40c0 8.19-2.524 15.788-6.835 22.062l1.648 1.133A40.815 40.815 0 0 0 81 40h-2Zm-7.147-22.508A38.817 38.817 0 0 1 79 40h2a40.817 40.817 0 0 0-7.514-23.664l-1.633 1.156Zm-64.523.422h65.34v-2H7.33v2ZM1 40c0-8.385 2.645-16.15 7.146-22.508l-1.632-1.156A40.817 40.817 0 0 0-1 40h2Zm6.835 22.062A38.815 38.815 0 0 1 1 40h-2a40.815 40.815 0 0 0 7.187 23.195l1.648-1.133Zm65.154-.434H7.01v2h65.98v-2Z" mask="url(#c)"/>
  <rect width="32" height="32" x="24" y="24" fill="#fff" rx="16"/>
  <path fill="#000" d="M36.197 47h-2.9V34.958h-3.105v-2.546h6.005V47Zm5.017-10.033-2.439-1.16a5.468 5.468 0 0 1 1.977-2.622 5.115 5.115 0 0 1 3.04-.988c1.525 0 2.782.44 3.76 1.322.977.88 1.471 2.008 1.471 3.373.054 1.203-.547 2.266-1.224 3.04-.408.494-1.236 1.17-1.708 1.536-.258.193-.58.43-.956.709l-.344.247c-1.386.999-2.16 1.676-2.32 2.04h6.746V47h-10.12v-1.214c0-.677.226-1.375.505-1.923.258-.515.881-1.235 1.257-1.633.204-.204.462-.45.795-.72.333-.268.591-.483.795-.633.194-.15.462-.344.795-.59.988-.72 1.697-1.333 2.138-1.816.44-.484.655-1 .655-1.547 0-1.3-.88-2.116-2.213-2.116-1.214 0-2.127.827-2.61 2.159Z"/>
  <defs>
    <radialGradient id="a" cx="0" cy="0" r="1" gradientTransform="rotate(126.353 29.301 14.623) scale(77.941 171.177)" gradientUnits="userSpaceOnUse">
      <stop offset=".237" stop-color="#fff" stop-opacity="0"/>
      <stop offset="1" stop-color="#fff"/>
    </radialGradient>
    <radialGradient id="b" cx="0" cy="0" r="1" gradientTransform="rotate(-29.745 109.865 -2.2) scale(60.1518 44.8786)" gradientUnits="userSpaceOnUse">
      <stop offset="0" stop-color="#E5AAFB"/>
      <stop offset="1" stop-color="#26132D"/>
    </radialGradient>
  </defs>
</svg>
