<svg xmlns="http://www.w3.org/2000/svg" width="80" height="80" fill="none" viewBox="0 0 80 80">
  <circle cx="40" cy="40" r="39.5" fill="#99999C" fill-opacity=".55"/>
  <circle cx="40" cy="40" r="39.5" fill="url(#a)"/>
  <circle cx="40" cy="40" r="39.5" stroke="#939393"/>
  <mask id="c" fill="#fff">
    <path fill-rule="evenodd" d="M72.989 62.628A39.814 39.814 0 0 0 79.999 40a39.816 39.816 0 0 0-7.33-23.086H7.33A39.817 39.817 0 0 0 0 40a39.815 39.815 0 0 0 7.01 22.628h65.98Z" clip-rule="evenodd"/>
  </mask>
  <path fill="#1F2026" fill-rule="evenodd" d="M72.989 62.628A39.814 39.814 0 0 0 79.999 40a39.816 39.816 0 0 0-7.33-23.086H7.33A39.817 39.817 0 0 0 0 40a39.815 39.815 0 0 0 7.01 22.628h65.98Z" clip-rule="evenodd"/>
  <path fill="url(#b)" fill-rule="evenodd" d="M72.989 62.628A39.814 39.814 0 0 0 79.999 40a39.816 39.816 0 0 0-7.33-23.086H7.33A39.817 39.817 0 0 0 0 40a39.815 39.815 0 0 0 7.01 22.628h65.98Z" clip-rule="evenodd"/>
  <path fill="#783B18" d="M72.989 62.628v1h.526l.298-.433-.824-.567Zm-.32-45.714.817-.578-.3-.422h-.517v1Zm-65.339 0v-1h-.517l-.299.422.816.578Zm-.319 45.714-.824.567.298.433h.526v-1ZM79 40c0 8.19-2.524 15.788-6.835 22.062l1.648 1.133A40.815 40.815 0 0 0 81 40h-2Zm-7.147-22.508A38.817 38.817 0 0 1 79 40h2a40.817 40.817 0 0 0-7.514-23.664l-1.633 1.156Zm-64.523.422h65.34v-2H7.33v2ZM1 40c0-8.385 2.645-16.15 7.146-22.508l-1.632-1.156A40.817 40.817 0 0 0-1 40h2Zm6.835 22.062A38.815 38.815 0 0 1 1 40h-2a40.815 40.815 0 0 0 7.187 23.195l1.648-1.133Zm65.154-.434H7.01v2h65.98v-2Z" mask="url(#c)"/>
  <rect width="32" height="32" x="24" y="24" fill="#fff" rx="16"/>
  <path fill="#000" d="M36.133 47h-2.9V34.958h-3.105v-2.546h6.005V47Zm4.941-10.065-2.342-1.279c.527-1.257 1.386-2.277 2.804-2.954a5.38 5.38 0 0 1 2.31-.505c1.332 0 2.567.398 3.523 1.085.946.699 1.547 1.837 1.547 3.18 0 .634-.193 1.246-.59 1.815-.398.58-.87 1-1.44 1.268.655.215 1.203.634 1.654 1.267.44.634.666 1.311.666 2.01 0 1.374-.634 2.556-1.611 3.276-.978.72-2.235 1.117-3.535 1.117-1.192 0-2.266-.312-3.211-.935-.946-.623-1.644-1.493-2.106-2.62l2.342-1.29c.516 1.375 1.633 2.235 2.933 2.235.612 0 1.127-.172 1.568-.516.43-.333.645-.784.645-1.354 0-1.213-.967-1.976-2.439-1.976h-2.127v-2.267h2.127c.623 0 1.139-.182 1.536-.537.398-.354.602-.827.602-1.418 0-.505-.194-.924-.57-1.246-.386-.322-.891-.483-1.504-.483-.633 0-1.203.204-1.686.612-.494.408-.86.913-1.096 1.515Z"/>
  <defs>
    <radialGradient id="a" cx="0" cy="0" r="1" gradientTransform="rotate(126.353 29.301 14.623) scale(77.941 171.177)" gradientUnits="userSpaceOnUse">
      <stop offset=".237" stop-color="#fff" stop-opacity="0"/>
      <stop offset="1" stop-color="#fff"/>
    </radialGradient>
    <radialGradient id="b" cx="0" cy="0" r="1" gradientTransform="rotate(-29.745 109.865 -2.2) scale(60.1518 44.8786)" gradientUnits="userSpaceOnUse">
      <stop offset="0" stop-color="#FF9960"/>
      <stop offset="1" stop-color="#301201"/>
    </radialGradient>
  </defs>
</svg>
