<svg xmlns="http://www.w3.org/2000/svg" width="80" height="80" fill="none" viewBox="0 0 80 80">
  <circle cx="40" cy="40" r="39.5" fill="#99999C" fill-opacity=".55"/>
  <circle cx="40" cy="40" r="39.5" fill="url(#a)"/>
  <circle cx="40" cy="40" r="39.5" stroke="#939393"/>
  <mask id="c" fill="#fff">
    <path fill-rule="evenodd" d="M72.989 62.628A39.814 39.814 0 0 0 79.999 40a39.816 39.816 0 0 0-7.33-23.086H7.33A39.817 39.817 0 0 0 0 40a39.815 39.815 0 0 0 7.01 22.628h65.98Z" clip-rule="evenodd"/>
  </mask>
  <path fill="#1F2026" fill-rule="evenodd" d="M72.989 62.628A39.814 39.814 0 0 0 79.999 40a39.816 39.816 0 0 0-7.33-23.086H7.33A39.817 39.817 0 0 0 0 40a39.815 39.815 0 0 0 7.01 22.628h65.98Z" clip-rule="evenodd"/>
  <path fill="url(#b)" fill-rule="evenodd" d="M72.989 62.628A39.814 39.814 0 0 0 79.999 40a39.816 39.816 0 0 0-7.33-23.086H7.33A39.817 39.817 0 0 0 0 40a39.815 39.815 0 0 0 7.01 22.628h65.98Z" clip-rule="evenodd"/>
  <path fill="#582416" d="M72.989 62.628v1h.526l.298-.433-.824-.567Zm-.32-45.714.817-.578-.3-.422h-.517v1Zm-65.339 0v-1h-.517l-.299.422.816.578Zm-.319 45.714-.824.567.298.433h.526v-1ZM79 40c0 8.19-2.524 15.788-6.835 22.062l1.648 1.133A40.815 40.815 0 0 0 81 40h-2Zm-7.147-22.508A38.817 38.817 0 0 1 79 40h2a40.817 40.817 0 0 0-7.514-23.664l-1.633 1.156Zm-64.523.422h65.34v-2H7.33v2ZM1 40c0-8.385 2.645-16.15 7.146-22.508l-1.632-1.156A40.817 40.817 0 0 0-1 40h2Zm6.835 22.062A38.815 38.815 0 0 1 1 40h-2a40.815 40.815 0 0 0 7.187 23.195l1.648-1.133Zm65.154-.434H7.01v2h65.98v-2Z" mask="url(#c)"/>
  <rect width="32" height="32" x="24" y="24" fill="#fff" rx="16"/>
  <path fill="#000" d="M36.154 47h-2.9V34.958h-3.105v-2.546h6.005V47Zm7.788.215c-2.535 0-4.382-1.29-5.339-3.61l2.342-1.213c.57 1.407 1.6 2.212 2.933 2.212.72 0 1.321-.214 1.805-.655.472-.43.709-.977.709-1.643 0-.699-.237-1.268-.71-1.698-.483-.418-1.106-.633-1.89-.633-.967 0-1.805.354-2.524 1.074l-1.988-.892.86-7.745h8.497v2.557h-6.145l-.344 3.212c.473-.398 1.386-.71 2.374-.71 1.418 0 2.579.441 3.492 1.311.902.881 1.353 2.041 1.353 3.48 0 1.45-.505 2.633-1.525 3.556-1.02.935-2.32 1.397-3.9 1.397Z"/>
  <defs>
    <radialGradient id="a" cx="0" cy="0" r="1" gradientTransform="rotate(126.353 29.301 14.623) scale(77.941 171.177)" gradientUnits="userSpaceOnUse">
      <stop offset=".237" stop-color="#fff" stop-opacity="0"/>
      <stop offset="1" stop-color="#fff"/>
    </radialGradient>
    <radialGradient id="b" cx="0" cy="0" r="1" gradientTransform="rotate(-29.745 109.865 -2.2) scale(60.1518 44.8786)" gradientUnits="userSpaceOnUse">
      <stop offset="0" stop-color="#9B4235"/>
      <stop offset="1" stop-color="#190300"/>
    </radialGradient>
  </defs>
</svg>
