<svg xmlns="http://www.w3.org/2000/svg" width="81" height="81" fill="none" viewBox="0 0 81 81">
  <circle cx="40.307" cy="40.653" r="39.5" fill="#1F2026"/>
  <circle cx="40.307" cy="40.653" r="39.5" fill="url(#a)"/>
  <circle cx="40.307" cy="40.653" r="39.5" stroke="#005C37"/>
  <rect width="32" height="32" x="24.307" y="24.653" fill="#fff" rx="16"/>
  <path fill="#000" d="M40.586 47.868c-4.168 0-5.8-3.115-5.8-6.886 0-2.524.59-4.511 1.772-5.962 1.17-1.45 2.857-2.17 5.038-2.17 1.428 0 2.664.28 3.717.85l-.688 2.309c-.838-.462-1.783-.699-2.825-.699-1.472 0-2.653.516-3.427 1.794-.387.634-.601 1.43-.645 2.364.27-.44.71-.795 1.322-1.074a4.848 4.848 0 0 1 1.998-.409c2.578 0 5.049 1.44 5.049 4.78 0 1.547-.505 2.783-1.526 3.707-1.02.934-2.341 1.396-3.985 1.396Zm-.032-7.509c-.763 0-1.375.226-1.848.688-.473.462-.709 1.053-.709 1.794 0 .752.236 1.364.71 1.837.461.483 1.084.72 1.847.72.784 0 1.418-.237 1.901-.71.483-.461.73-1.074.73-1.826 0-.762-.236-1.375-.708-1.826-.484-.451-1.118-.677-1.923-.677Z"/>
  <defs>
    <radialGradient id="a" cx="0" cy="0" r="1" gradientTransform="rotate(-45 87.53 13.806) scale(73.8593 63.9618)" gradientUnits="userSpaceOnUse">
      <stop offset="0" stop-color="#00A864"/>
      <stop offset="1" stop-color="#001A10"/>
    </radialGradient>
  </defs>
</svg>
