<svg xmlns="http://www.w3.org/2000/svg" width="81" height="81" fill="none" viewBox="0 0 81 81">
  <circle cx="40.653" cy="40.307" r="39.5" fill="#1F2026"/>
  <circle cx="40.653" cy="40.307" r="39.5" fill="url(#a)" fill-opacity=".9"/>
  <circle cx="40.653" cy="40.307" r="39.5" stroke="#373737"/>
  <rect width="32" height="32" x="24.653" y="24.307" fill="#fff" rx="16"/>
  <path fill="#000" d="M42.265 47.371c-3.137.602-7.09-.516-7.09-4.114 0-1.665.891-2.965 2.277-3.61-1.16-.612-1.933-1.75-1.933-3.169 0-1.32.633-2.406 1.622-3.029.988-.623 2.202-.945 3.502-.945 1.3 0 2.524.322 3.512.945.978.623 1.612 1.708 1.612 3.03 0 1.418-.763 2.556-1.923 3.169 1.386.644 2.288 1.944 2.288 3.609 0 2.385-1.773 3.706-3.867 4.114Zm.182-5.994c-.472-.387-1.074-.58-1.804-.58s-1.333.193-1.794.58c-.462.397-.699.924-.699 1.59 0 .677.237 1.203.71 1.579.461.387 1.063.58 1.783.58.73 0 1.332-.193 1.804-.58.473-.376.71-.902.71-1.58 0-.665-.237-1.192-.71-1.589Zm-3.953-4.555c0 1.203.827 1.977 2.149 1.977 1.332 0 2.159-.774 2.159-1.977 0-1.128-.838-1.89-2.16-1.89-1.32 0-2.148.762-2.148 1.89Z"/>
  <defs>
    <radialGradient id="a" cx="0" cy="0" r="1" gradientTransform="rotate(-45 87.284 13.215) scale(73.8593 63.9618)" gradientUnits="userSpaceOnUse">
      <stop stop-color="#606060"/>
      <stop offset="1" stop-color="#09090B"/>
    </radialGradient>
  </defs>
</svg>
