<svg xmlns="http://www.w3.org/2000/svg" width="81" height="81" fill="none" viewBox="0 0 81 81">
  <circle cx="40.307" cy="40.307" r="39.5" fill="#99999C" fill-opacity=".55"/>
  <circle cx="40.307" cy="40.307" r="39.5" fill="url(#a)"/>
  <circle cx="40.307" cy="40.307" r="39.5" stroke="#939393"/>
  <mask id="c" fill="#fff">
    <path fill-rule="evenodd" d="M73.295 62.935a39.816 39.816 0 0 0 7.012-22.628 39.817 39.817 0 0 0-7.33-23.086H7.636a39.817 39.817 0 0 0-7.33 23.086 39.815 39.815 0 0 0 7.01 22.628h65.978Z" clip-rule="evenodd"/>
  </mask>
  <path fill="#1F2026" fill-rule="evenodd" d="M73.295 62.935a39.816 39.816 0 0 0 7.012-22.628 39.817 39.817 0 0 0-7.33-23.086H7.636a39.817 39.817 0 0 0-7.33 23.086 39.815 39.815 0 0 0 7.01 22.628h65.978Z" clip-rule="evenodd"/>
  <path fill="url(#b)" fill-rule="evenodd" d="M73.295 62.935a39.816 39.816 0 0 0 7.012-22.628 39.817 39.817 0 0 0-7.33-23.086H7.636a39.817 39.817 0 0 0-7.33 23.086 39.815 39.815 0 0 0 7.01 22.628h65.978Z" clip-rule="evenodd"/>
  <path fill="#64460A" d="M73.295 62.935v1h.526l.299-.434-.825-.566Zm-.319-45.714.816-.578-.299-.422h-.517v1Zm-65.339 0v-1H7.12l-.3.422.817.578Zm-.32 45.714-.823.566.298.434h.526v-1Zm71.99-22.628c0 8.19-2.524 15.788-6.836 22.062L74.12 63.5a40.815 40.815 0 0 0 7.188-23.194h-2ZM72.16 17.798a38.817 38.817 0 0 1 7.147 22.509h2a40.817 40.817 0 0 0-7.515-23.664l-1.632 1.155Zm-64.523.423h65.34v-2H7.636v2Zm-6.33 22.086c0-8.386 2.645-16.15 7.146-22.509l-1.632-1.155A40.817 40.817 0 0 0-.693 40.307h2Zm6.835 22.062a38.815 38.815 0 0 1-6.835-22.062h-2A40.815 40.815 0 0 0 6.494 63.5l1.648-1.132Zm65.153-.434H7.318v2h65.977v-2Z" mask="url(#c)"/>
  <rect width="32" height="32" x="24.307" y="24.307" fill="#fff" rx="16"/>
  <path fill="#000" d="M39.587 42.333c-1.536 0-2.772-.44-3.728-1.321-.956-.881-1.428-2.03-1.428-3.46 0-1.514.515-2.728 1.536-3.662 1.02-.924 2.374-1.386 4.039-1.386 2.073 0 3.674.752 4.587 2.009.913 1.257 1.364 2.846 1.364 4.77 0 2.567-.58 4.586-1.73 6.047-1.149 1.461-2.846 2.192-5.091 2.192-1.59 0-2.9-.366-3.943-1.096l.828-2.32c.934.622 1.933.934 3.007.934 1.429 0 2.621-.559 3.373-1.826.376-.634.57-1.397.602-2.299-.752.945-1.89 1.418-3.416 1.418Zm.494-7.348c-.806 0-1.472.226-1.977.677-.504.462-.762 1.064-.762 1.805 0 .752.247 1.343.752 1.783.494.44 1.15.666 1.976.666.785 0 1.429-.236 1.923-.709a2.308 2.308 0 0 0 .741-1.73 2.38 2.38 0 0 0-.74-1.761c-.495-.484-1.129-.73-1.913-.73Z"/>
  <defs>
    <radialGradient id="a" cx="0" cy="0" r="1" gradientTransform="rotate(126.353 29.377 14.854) scale(77.941 171.177)" gradientUnits="userSpaceOnUse">
      <stop offset=".237" stop-color="#fff" stop-opacity="0"/>
      <stop offset="1" stop-color="#fff"/>
    </radialGradient>
    <radialGradient id="b" cx="0" cy="0" r="1" gradientTransform="rotate(-29.745 110.596 -2.625) scale(60.1518 44.8786)" gradientUnits="userSpaceOnUse">
      <stop offset="0" stop-color="#FFB216"/>
      <stop offset="1" stop-color="#231903"/>
    </radialGradient>
  </defs>
</svg>
