<svg width="208" height="40" viewBox="0 0 208 40" fill="none" xmlns="http://www.w3.org/2000/svg">
<path d="M14.4141 5.29221C17.0411 5.29221 18.9077 5.86382 20.0138 7.00703C20.8434 7.87586 21.2582 8.97334 21.2582 10.2995C21.2582 10.7568 21.2121 11.2369 21.1199 11.7399L20.636 14.415C20.3594 15.9012 19.8755 17.1016 19.1842 18.0161C18.5159 18.9307 17.767 19.5823 16.9374 19.971L20.0829 29.9855H13.1006L10.197 20.7598H8.05391L6.63669 29.9855H0L4.3899 5.29221H14.4141ZM12.2364 10.6424H9.64395L8.74523 16.61H11.1649C12.3862 16.61 13.2619 16.3242 13.7919 15.7526C14.3219 15.1581 14.5869 14.3807 14.5869 13.4204C14.5869 11.5684 13.8034 10.6424 12.2364 10.6424Z" fill="#E8E8ED"/>
<path d="M38.8304 24.7039C38.8304 25.2984 39.13 25.5956 39.7292 25.5956C40.3513 25.5956 40.8698 25.4813 41.2846 25.2526L41.1118 29.1281C40.0057 30.0198 38.7613 30.4657 37.3787 30.4657C34.8438 30.4657 33.4381 29.5511 33.1616 27.722C32.0094 29.5511 30.3157 30.4657 28.0804 30.4657C24.3012 30.4657 22.4115 28.8537 22.4115 25.6299C22.4115 25.0812 22.4691 24.4753 22.5844 23.8122L23.3103 19.7995C23.679 17.7418 24.5201 16.107 25.8336 14.8952C27.1701 13.6605 28.8984 13.0432 31.0185 13.0432C33.1616 13.0432 34.6134 13.5347 35.3738 14.5179L35.5467 13.489H40.8007L38.865 24.2923C38.842 24.4295 38.8304 24.5667 38.8304 24.7039ZM28.5989 23.0577C28.5528 23.2635 28.5297 23.5493 28.5297 23.9151C28.5297 24.2809 28.7026 24.6467 29.0482 25.0126C29.3939 25.3555 29.97 25.527 30.7765 25.527C31.6061 25.527 32.3205 25.2069 32.9196 24.5667L33.9566 18.8049C33.7031 18.2333 33.104 17.9475 32.1592 17.9475C30.3848 17.9475 29.3478 18.7935 29.0482 20.4855L28.5989 23.0577Z" fill="#E8E8ED"/>
<path d="M50.395 30.4657C45.6018 30.4657 43.2052 28.8195 43.2052 25.527C43.2052 25.0697 43.2513 24.5781 43.3435 24.0523L44.0694 19.7995C44.4381 17.6046 45.4405 15.9241 47.0766 14.758C48.7358 13.5919 50.8328 12.9974 53.3677 12.9746C58.276 12.9746 60.7302 14.6665 60.7302 18.0504C60.7302 18.7821 60.6381 19.4451 60.4537 20.0396C60.2924 20.6112 60.1196 20.9999 59.9352 21.2057L59.6587 21.5486H53.7824C54.3586 21.0456 54.6466 20.4512 54.6466 19.7652C54.6466 18.5306 54.0244 17.9132 52.78 17.9132C52.0426 17.9132 51.4089 18.1304 50.8789 18.5649C50.3489 18.9993 50.0032 19.6623 49.8419 20.5541L49.3926 23.0577C49.3465 23.2863 49.3234 23.5035 49.3234 23.7093C49.3234 24.9211 50.0839 25.527 51.6048 25.527C52.1118 25.527 52.5611 25.367 52.9529 25.0469C53.3677 24.7268 53.6096 24.3724 53.6787 23.9837L59.4167 24.0523C58.6563 28.3279 55.649 30.4657 50.395 30.4657Z" fill="#E8E8ED"/>
<path d="M78.9744 25.5956C79.5044 25.5956 79.9768 25.4813 80.3916 25.2526L80.2188 29.1281C79.1357 30.0198 77.8107 30.4657 76.2437 30.4657C74.6767 30.4657 73.5129 30.0541 72.7525 29.231C72.0151 28.4079 71.439 27.0246 71.0242 25.0812L70.9205 24.601C70.4366 24.6696 69.7107 24.7268 68.7428 24.7725L67.8095 29.9855H61.9333L66.5652 3.95466H72.4414L70.4366 15.2381C71.7962 13.752 73.6397 13.0089 75.9671 13.0089C77.5341 13.0089 78.6863 13.3976 79.4238 14.1749C80.1842 14.9295 80.5644 15.9469 80.5644 17.2273C80.5644 19.6966 79.2625 21.6287 76.6585 23.0234L77.0387 24.2923C77.2922 25.1612 77.9374 25.5956 78.9744 25.5956ZM72.9945 17.6732C71.7501 17.6732 70.644 18.2562 69.6761 19.4223L69.2959 21.6858C72.7064 21.5486 74.4117 20.6455 74.4117 18.9764C74.4117 18.5877 74.2849 18.2791 74.0314 18.0504C73.801 17.7989 73.4553 17.6732 72.9945 17.6732Z" fill="#E8E8ED"/>
<path d="M103.405 30.4657C98.6122 30.4657 96.2156 28.8195 96.2156 25.527C96.2156 25.0697 96.2617 24.5781 96.3539 24.0523L97.0798 19.7995C97.4715 17.6046 98.4854 15.9241 100.122 14.758C101.781 13.569 103.97 12.9746 106.689 12.9746C111.321 12.9746 113.637 14.7123 113.637 18.1876C113.637 18.6906 113.591 19.2394 113.499 19.8338L113.084 22.2689H102.541L102.403 23.0577C102.357 23.332 102.334 23.5836 102.334 23.8122C102.334 25.0697 103.083 25.6985 104.581 25.6985C105.134 25.6985 105.606 25.527 105.998 25.184C106.39 24.8411 106.62 24.441 106.689 23.9837L112.427 24.0523C111.667 28.3279 108.659 30.4657 103.405 30.4657ZM107.553 20.1768C107.645 19.7881 107.692 19.4337 107.692 19.1136C107.692 18.7706 107.542 18.4277 107.242 18.0847C106.943 17.7418 106.459 17.5703 105.79 17.5703C105.145 17.5703 104.546 17.7875 103.993 18.2219C103.463 18.6563 103.094 19.308 102.887 20.1768H107.553Z" fill="#E8E8ED"/>
<path d="M144.116 25.5956C144.646 25.5956 145.118 25.4813 145.533 25.2526L145.36 29.1281C144.277 30.0198 143.044 30.4657 141.662 30.4657C138.528 30.4657 136.961 29.1624 136.961 26.5559C136.961 26.0986 137.007 25.607 137.099 25.0812L137.825 20.8627C137.894 20.4512 137.929 20.0396 137.929 19.628C137.929 18.5306 137.318 17.9818 136.097 17.9818C134.898 17.9818 133.953 18.4505 133.262 19.388L131.396 29.9855H125.519L127.144 20.8627C127.213 20.4512 127.248 20.0396 127.248 19.628C127.248 18.5306 126.625 17.9818 125.381 17.9818C124.39 17.9818 123.538 18.3591 122.823 19.1136L120.887 29.9855H115.011L117.949 13.489H123.411L123.031 15.5468C124.413 13.8548 126.165 13.0089 128.285 13.0089C131.28 13.0089 132.986 13.992 133.4 15.9584C134.783 13.992 136.627 13.0089 138.931 13.0089C141.258 13.0089 142.768 13.5233 143.459 14.5522C143.92 15.261 144.15 16.0384 144.15 16.8843C144.15 17.7303 144.093 18.4963 143.978 19.1822L143.113 24.2923C143.09 24.4295 143.079 24.5553 143.079 24.6696C143.079 25.2869 143.425 25.5956 144.116 25.5956Z" fill="#E8E8ED"/>
<path d="M172.528 24.7039C172.528 25.2984 172.828 25.5956 173.427 25.5956C174.049 25.5956 174.568 25.4813 174.982 25.2526L174.81 29.1281C173.703 30.0198 172.459 30.4657 171.076 30.4657C168.472 30.4657 167.055 29.4711 166.825 27.4819C165.442 29.4711 163.576 30.4657 161.225 30.4657C158.898 30.4657 157.388 29.9398 156.697 28.888C156.236 28.225 156.006 27.4705 156.006 26.6245C156.006 25.7785 156.075 25.0011 156.213 24.2923L158.149 13.489H164.025L162.4 22.6118C162.331 23.0234 162.297 23.4349 162.297 23.8465C162.297 24.944 162.919 25.4927 164.163 25.4927C165.2 25.4927 166.03 25.1383 166.652 24.4295L168.622 13.489H174.498L172.563 24.2923C172.54 24.4295 172.528 24.5667 172.528 24.7039Z" fill="#E8E8ED"/>
<path d="M189.128 13.0432C191.478 13.0432 193.103 13.6605 194.002 14.8952C194.647 15.7411 194.97 16.8158 194.97 18.119C194.97 18.6449 194.912 19.2051 194.797 19.7995L194.105 23.8122C193.714 25.9843 192.873 27.6419 191.582 28.7852C190.292 29.9055 188.679 30.4657 186.743 30.4657C184.807 30.4657 183.459 29.9512 182.699 28.9223L180.832 39.5199H174.956L179.588 13.489H184.911L184.738 14.415C185.821 13.5005 187.284 13.0432 189.128 13.0432ZM185.533 25.527C186.178 25.527 186.777 25.3212 187.331 24.9097C187.884 24.4981 188.229 23.8808 188.368 23.0577L188.817 20.4855C188.863 20.2568 188.886 19.971 188.886 19.628C188.886 19.2851 188.736 18.9193 188.437 18.5306C188.137 18.1419 187.619 17.9475 186.881 17.9475C185.683 17.9475 184.899 18.2333 184.531 18.8049L183.494 24.5667C183.816 25.2069 184.496 25.527 185.533 25.527Z" fill="#E8E8ED"/>
<path d="M203.375 20.9999H198.778L201.267 2.85718H207.143L203.375 20.9999ZM196.669 27.9963C196.669 26.533 196.992 25.4698 197.637 24.8068C198.282 24.1209 199.308 23.7779 200.714 23.7779C202.649 23.7779 203.617 24.6239 203.617 26.3158C203.617 27.7563 203.283 28.808 202.615 29.4711C201.969 30.1341 200.944 30.4657 199.538 30.4657C197.626 30.4657 196.669 29.6426 196.669 27.9963Z" fill="#E8E8ED"/>
<path d="M101.53 1.13227C98.0023 1.78 95.5954 3.39776 94.0653 5.25626L97.1321 7.5591C97.0902 6.53104 97.6072 5.55787 98.6833 4.63959C99.7803 3.69557 100.805 3.06866 101.757 2.75886L101.53 1.13227Z" fill="white"/>
<path d="M90.1848 11.0629C90.163 10.9931 90.1512 10.9193 90.1507 10.8433C90.1506 10.827 90.1505 10.8105 90.1504 10.7939C90.1477 10.3569 90.1444 9.81324 90.2872 9.26707L90.1848 11.0629ZM90.1848 11.0629L90.1849 11.0632L90.1855 11.0655L90.1862 11.0679L90.1868 11.0703L90.1874 11.0726L90.1881 11.075L90.1887 11.0773L90.1893 11.0797L90.19 11.0821L90.1906 11.0844L90.1912 11.0868L90.1919 11.0892L90.1925 11.0915L90.1931 11.0939L90.1938 11.0962L90.1944 11.0986L90.195 11.101L90.1957 11.1033L90.1963 11.1057L90.1969 11.1081L90.1976 11.1104L90.1982 11.1128L90.1988 11.1151L90.1995 11.1175L90.2001 11.1199L90.2007 11.1222L90.2014 11.1246L90.202 11.127L90.2026 11.1293L90.2033 11.1317L90.2039 11.134L90.2045 11.1364L90.2052 11.1388L90.2058 11.1411L90.2064 11.1435L90.2071 11.1459L90.2077 11.1482L90.2083 11.1506L90.209 11.153L90.2096 11.1553L90.2102 11.1577L90.2109 11.16L90.2115 11.1624L90.2121 11.1648L90.2128 11.1671L90.2134 11.1695L90.214 11.1719L90.2147 11.1742L90.2153 11.1766L90.2159 11.1789L90.2166 11.1813L90.2172 11.1837L90.2178 11.186L90.2185 11.1884L90.2191 11.1908L90.2197 11.1931L90.2204 11.1955L90.221 11.1978L90.2216 11.2002L90.2223 11.2026L90.2229 11.2049L90.2235 11.2073L90.2242 11.2097L90.2248 11.212L90.2254 11.2144L90.2261 11.2167L90.2267 11.2191L90.2273 11.2215L90.228 11.2238L90.2286 11.2262L90.2292 11.2286L90.2299 11.2309L90.2305 11.2333L90.2311 11.2357L90.2317 11.238L90.2324 11.2404L90.233 11.2427L90.2336 11.2451L90.2343 11.2475L90.2349 11.2498L90.2355 11.2522L90.2362 11.2546L90.2368 11.2569L90.2374 11.2593L90.2381 11.2616L90.2387 11.264L90.2393 11.2664L90.24 11.2687L90.2406 11.2711L90.2412 11.2735L90.2419 11.2758L90.2425 11.2782L90.2431 11.2806L90.2438 11.2829L90.2444 11.2853L90.245 11.2876L90.2457 11.29L90.2463 11.2924L90.2469 11.2947L90.2476 11.2971L90.2482 11.2995L90.2488 11.3018L90.2495 11.3042L90.2501 11.3065L90.2507 11.3089L90.2514 11.3113L90.252 11.3136L90.2526 11.316L90.2533 11.3184L90.2539 11.3207L90.2545 11.3231L90.2552 11.3255L90.2558 11.3278L90.2564 11.3302L90.2571 11.3325L90.2577 11.3349L90.2583 11.3373L90.259 11.3396L90.2596 11.342L90.2602 11.3444L90.2609 11.3467L90.2615 11.3491L90.2621 11.3514L90.2628 11.3538L90.2634 11.3562L90.264 11.3585L90.2647 11.3609L90.2653 11.3633L90.2659 11.3656L90.2666 11.368L90.2672 11.3704L90.2678 11.3727L90.2685 11.3751L90.2691 11.3774L90.2697 11.3798L90.2704 11.3822L90.271 11.3845L90.2716 11.3869L90.2723 11.3893L90.2729 11.3916L90.2735 11.394L90.2742 11.3964L90.2748 11.3987L90.2754 11.4011L90.2761 11.4034L90.2767 11.4058L90.2773 11.4082L90.278 11.4105L90.2786 11.4129L90.2792 11.4153L90.2799 11.4176L90.2805 11.42L90.2811 11.4224L90.2818 11.4247L90.2824 11.4271L90.283 11.4294L90.2837 11.4318L90.2843 11.4342L90.2849 11.4365L90.2856 11.4389L90.2862 11.4413L90.2868 11.4436L90.2875 11.446L90.2881 11.4484L90.2887 11.4507L90.2894 11.4531L90.29 11.4554L90.2906 11.4578L90.2913 11.4602L90.2919 11.4625L90.2925 11.4649L90.2932 11.4673L90.2938 11.4696L90.2944 11.472L90.2951 11.4744L90.2957 11.4767L90.2963 11.4791L90.297 11.4814L90.2976 11.4838L90.2982 11.4862L90.2989 11.4885L90.2995 11.4909L90.3001 11.4933L90.3008 11.4956L90.3014 11.498L90.302 11.5004L90.3027 11.5027L90.3033 11.5051L90.3039 11.5074L90.3046 11.5098L90.3052 11.5122L90.3058 11.5145L90.3065 11.5169L90.3071 11.5193L90.3077 11.5216L90.3084 11.524L90.309 11.5264L90.3096 11.5287L90.3103 11.5311L90.3109 11.5334L90.3115 11.5358L90.3122 11.5382L90.3128 11.5405L90.3134 11.5429L90.3141 11.5453L90.3147 11.5476L90.3153 11.55L90.316 11.5524L90.3166 11.5547L90.3172 11.5571L90.3179 11.5594L90.3185 11.5618L90.3191 11.5642L90.3198 11.5665L90.3204 11.5689L90.321 11.5713L90.3217 11.5736L90.3223 11.576L90.3229 11.5784L90.3236 11.5807L90.3242 11.5831L90.3248 11.5854L90.3255 11.5878L90.3261 11.5902L90.3267 11.5925L90.3274 11.5949L90.328 11.5973L90.3286 11.5996L90.3293 11.602L90.3299 11.6044L90.3305 11.6067L90.3312 11.6091L90.3318 11.6114L90.3324 11.6138L90.3331 11.6162L90.3337 11.6185L90.3343 11.6209L90.335 11.6233L90.3356 11.6256L90.3362 11.628L90.3369 11.6304L90.3375 11.6327L90.3381 11.6351L90.3388 11.6374L90.3394 11.6398L90.34 11.6422L90.3407 11.6445L90.3413 11.6469L90.3419 11.6493L90.3426 11.6516L90.3432 11.654L90.3438 11.6564L90.3445 11.6587L90.3451 11.6611L90.3457 11.6634L90.3464 11.6658L90.347 11.6682L90.3476 11.6705L90.3483 11.6729L90.3489 11.6753L90.3495 11.6776L90.3502 11.68L90.3508 11.6824L90.3514 11.6847L90.3521 11.6871L90.3527 11.6895L90.3533 11.6918L90.354 11.6942L90.3546 11.6965L90.3552 11.6989L90.3559 11.7013L90.3565 11.7036L90.3571 11.706L90.3578 11.7084L90.3584 11.7107L90.359 11.7131L90.3597 11.7155L90.3603 11.7178L90.3609 11.7202L90.3616 11.7225L90.3622 11.7249L90.3628 11.7273L90.3635 11.7296L90.3641 11.732L90.3647 11.7344L90.3654 11.7367L90.366 11.7391L90.3666 11.7415L90.3673 11.7438L90.3679 11.7462L90.3685 11.7485L90.3692 11.7509L90.3698 11.7533L90.3704 11.7556L90.3711 11.758L90.3717 11.7604L90.3723 11.7627L90.373 11.7651L90.3736 11.7675L90.3742 11.7698L90.3749 11.7722L90.3755 11.7745L90.3761 11.7769L90.3768 11.7793L90.3774 11.7816L90.378 11.784L90.3787 11.7864L90.3793 11.7887L90.3799 11.7911L90.3806 11.7935L90.3812 11.7958L90.3818 11.7982L90.3825 11.8005L90.3831 11.8029L90.3837 11.8053L90.3844 11.8076L90.385 11.81L90.3856 11.8124L90.3863 11.8147L90.3869 11.8171L90.3875 11.8195L90.3882 11.8218L90.3888 11.8242L90.3894 11.8265L90.3901 11.8289L90.3907 11.8313L90.3913 11.8336L90.392 11.836L90.3926 11.8384L90.3932 11.8407L90.3939 11.8431L90.3945 11.8455L90.3951 11.8478L90.3958 11.8502L90.3964 11.8525L90.397 11.8549L90.3977 11.8573L90.3983 11.8596L90.3989 11.862L90.3996 11.8644L90.4002 11.8667L90.4008 11.8691L90.4015 11.8715L90.4021 11.8738L90.4027 11.8762L90.4034 11.8785L90.404 11.8809L90.4046 11.8833L90.4053 11.8856L90.4059 11.888L90.4065 11.8904L90.4072 11.8927L90.4078 11.8951L90.4084 11.8974L90.4091 11.8998L90.4097 11.9022L90.4103 11.9045L90.411 11.9069L90.4116 11.9093L90.4122 11.9116L90.4129 11.914L90.4135 11.9164L90.4141 11.9187L90.4148 11.9211L90.4154 11.9234L90.416 11.9258L90.4167 11.9282L90.4173 11.9305L90.4179 11.9329L90.4186 11.9353L90.4192 11.9376L90.4198 11.94L90.4205 11.9424L90.4211 11.9447L90.4217 11.9471L90.4224 11.9494L90.423 11.9518L90.4236 11.9542L90.4243 11.9565L90.4249 11.9589L90.4255 11.9613L90.4262 11.9636L90.4268 11.966L90.4274 11.9683L90.4281 11.9707L90.4287 11.9731L90.4293 11.9754L90.43 11.9778L90.4306 11.9802L90.4312 11.9825L90.4319 11.9849L90.4325 11.9873L90.4331 11.9896L90.4338 11.992L90.4344 11.9943L90.435 11.9967L90.4357 11.9991L90.4363 12.0014L90.4369 12.0038L90.4376 12.0062L90.4382 12.0085L90.4388 12.0109L90.4395 12.0132L90.4401 12.0156L90.4407 12.018L90.4414 12.0203L90.442 12.0227L90.4426 12.0251L90.4433 12.0274L90.4439 12.0298L90.4445 12.0322L90.4452 12.0345L90.4458 12.0369L90.4464 12.0392L90.4471 12.0416L90.4477 12.044L90.4483 12.0463L90.449 12.0487L90.4496 12.0511L90.4502 12.0534L90.4509 12.0558L90.4515 12.0581L90.4521 12.0605L90.4528 12.0629L90.4534 12.0652L90.454 12.0676L90.4547 12.07L90.4553 12.0723L90.4559 12.0747L90.4566 12.0771L90.4572 12.0794L90.4578 12.0818L90.4585 12.0841L90.4591 12.0865L90.4597 12.0889L90.4604 12.0912L90.461 12.0936L90.4616 12.096L90.4623 12.0983L90.4629 12.1007L90.4635 12.103L90.4642 12.1054L90.4648 12.1078L90.4654 12.1101L90.4661 12.1125L90.4667 12.1149L90.4673 12.1172L90.468 12.1196L90.4686 12.1219L90.4692 12.1243L90.4699 12.1267L90.4705 12.129L90.4711 12.1314L90.4718 12.1338L90.4724 12.1361L90.473 12.1385L90.4737 12.1408L90.4743 12.1432L90.4749 12.1456L90.4756 12.1479L90.4762 12.1503L90.4768 12.1527L90.4775 12.155L90.4781 12.1574L90.4787 12.1597L90.4794 12.1621L90.48 12.1645L90.4806 12.1668L90.4813 12.1692L90.4819 12.1716L90.4825 12.1739L90.4832 12.1763L90.4838 12.1786L90.4844 12.181L90.4851 12.1834L90.4857 12.1857L90.4863 12.1881L90.487 12.1905L90.4876 12.1928L90.4882 12.1952L90.4889 12.1975L90.4895 12.1999L90.4901 12.2023L90.4908 12.2046L90.4914 12.207L90.492 12.2094L90.4927 12.2117L90.4933 12.2141L90.4939 12.2164L90.4946 12.2188L90.4952 12.2212L90.4958 12.2235L90.4965 12.2259L90.4971 12.2283L90.4977 12.2306L90.4984 12.233L90.499 12.2353L90.4996 12.2377L90.5002 12.2401L90.5009 12.2424C90.5226 12.3236 90.5579 12.4005 90.6051 12.47C90.6823 12.5836 90.7466 12.6864 90.8182 12.8009C90.8662 12.8777 90.9175 12.9597 90.9781 13.0538C91.1141 13.2644 91.2761 13.4999 91.4774 13.7188L91.4775 13.7188C92.885 15.2488 95.1291 15.6729 97.0404 14.8191L97.0404 14.8191C99.7054 13.6284 100.725 10.2531 99.1453 7.78743C97.8298 5.73379 95.2336 5.00618 93.1452 5.90907L93.145 5.90916C91.6409 6.56 90.6945 7.70935 90.2872 9.26704L90.1848 11.0629Z" fill="white" stroke="black" stroke-width="1.5" stroke-linejoin="round"/>
<path d="M96.797 10.6657C97.5865 11.4202 97.7227 12.0336 97.247 12.6964C96.8598 13.2362 96.1024 13.4035 95.5135 13.0798C94.8676 12.725 94.6897 12.0326 95.0282 11.1411C94.796 10.8727 94.5578 10.5764 94.6183 10.184C94.6526 9.96329 94.7342 9.7291 94.862 9.54849C95.1466 9.14767 95.6929 9.02025 96.1444 9.20259C96.6744 9.41698 96.8588 9.83014 96.7978 10.6655L96.797 10.6657ZM96.0112 11.3282C95.6939 11.417 95.494 11.7595 95.5783 12.0713C95.6609 12.3798 96.0168 12.5794 96.3282 12.4914C96.6666 12.3962 96.8352 12.0954 96.7412 11.7529C96.6471 11.4103 96.3447 11.2343 96.0112 11.3282ZM96.081 10.1622C96.0297 9.94236 95.8594 9.8401 95.6412 9.89629C95.4344 9.94943 95.3364 10.1023 95.3758 10.3064C95.4193 10.5283 95.5881 10.6423 95.8018 10.5949C96.0249 10.5457 96.1317 10.3799 96.0801 10.1617L96.081 10.1622Z" fill="black"/>
</svg>
