<svg width="344" height="558" viewBox="0 0 344 558" fill="none" xmlns="http://www.w3.org/2000/svg">
<g opacity="0.25" clip-path="url(#clip0_0_1)">
<path d="M218.911 3.83916C210.954 5.5264 203.107 0.434898 201.422 -7.50787C200.905 -9.94861 201.003 -12.3824 201.719 -14.7428C204.75 -24.7701 202.282 -35.8358 195.277 -43.621C188.271 -51.41 177.516 -55.044 167.207 -53.1056C159.403 -51.6396 151.715 -56.7609 150.069 -64.5231C148.423 -72.2854 153.491 -80.3039 161.448 -81.9912C166.508 -83.0641 171.671 -81.4395 175.266 -77.6509C182.448 -70.0721 193.263 -66.7103 203.492 -68.8793C213.721 -71.0482 222.241 -78.5099 225.729 -88.3511C227.473 -93.2717 231.537 -96.8528 236.597 -97.9257C244.554 -99.6129 252.401 -94.5214 254.085 -86.5787C255.769 -78.6359 250.783 -71.0157 243.056 -69.1887C232.847 -66.7764 224.493 -59.0905 221.251 -49.1285C218.009 -39.1666 220.243 -28.0551 227.083 -20.1209C228.691 -18.2533 229.772 -16.0697 230.29 -13.6289C231.974 -5.68614 226.868 2.15192 218.911 3.83916ZM161.688 -80.8592C154.352 -79.3038 149.648 -72.0813 151.2 -64.759C152.753 -57.4368 159.801 -52.8832 166.995 -54.2356C177.698 -56.2459 188.864 -52.475 196.138 -44.3891C203.411 -36.3032 205.973 -24.817 202.826 -14.4076C202.168 -12.2364 202.077 -9.99272 202.553 -7.74754C204.105 -0.425301 211.336 4.26635 218.672 2.71093C226.007 1.1555 230.712 -6.06701 229.16 -13.3892C228.683 -15.6382 227.69 -17.648 226.207 -19.3654C219.107 -27.6019 216.785 -39.143 220.152 -49.4812C223.518 -59.8231 232.193 -67.8009 242.791 -70.3075C249.911 -71.9901 254.473 -79.1822 252.956 -86.3352C251.439 -93.4882 244.172 -98.3491 236.837 -96.7937C232.172 -95.8047 228.431 -92.5042 226.82 -87.9614C223.199 -77.7424 214.349 -69.9985 203.732 -67.7473C193.115 -65.496 181.883 -68.9856 174.427 -76.8522C171.115 -80.3508 166.352 -81.8482 161.688 -80.8592Z" fill="white"/>
<path d="M218.911 3.83916C210.954 5.5264 203.107 0.434898 201.422 -7.50787C200.905 -9.94861 201.003 -12.3824 201.719 -14.7428C204.75 -24.7701 202.282 -35.8358 195.277 -43.621C188.271 -51.41 177.516 -55.044 167.207 -53.1056C159.403 -51.6396 151.715 -56.7609 150.069 -64.5231C148.423 -72.2854 153.491 -80.3039 161.448 -81.9912C166.508 -83.0641 171.671 -81.4395 175.266 -77.6509C182.448 -70.0721 193.263 -66.7103 203.492 -68.8793C213.721 -71.0482 222.241 -78.5099 225.729 -88.3511C227.473 -93.2717 231.537 -96.8528 236.597 -97.9257C244.554 -99.6129 252.401 -94.5214 254.085 -86.5787C255.769 -78.6359 250.783 -71.0157 243.056 -69.1887C232.847 -66.7764 224.493 -59.0905 221.251 -49.1285C218.009 -39.1666 220.243 -28.0551 227.083 -20.1209C228.691 -18.2533 229.772 -16.0697 230.29 -13.6289C231.974 -5.68614 226.868 2.15192 218.911 3.83916ZM161.688 -80.8592C154.352 -79.3038 149.648 -72.0813 151.2 -64.759C152.753 -57.4368 159.801 -52.8832 166.995 -54.2356C177.698 -56.2459 188.864 -52.475 196.138 -44.3891C203.411 -36.3032 205.973 -24.817 202.826 -14.4076C202.168 -12.2364 202.077 -9.99272 202.553 -7.74754C204.105 -0.425301 211.336 4.26635 218.672 2.71093C226.007 1.1555 230.712 -6.06701 229.16 -13.3892C228.683 -15.6382 227.69 -17.648 226.207 -19.3654C219.107 -27.6019 216.785 -39.143 220.152 -49.4812C223.518 -59.8231 232.193 -67.8009 242.791 -70.3075C249.911 -71.9901 254.473 -79.1822 252.956 -86.3352C251.439 -93.4882 244.172 -98.3491 236.837 -96.7937C232.172 -95.8047 228.431 -92.5042 226.82 -87.9614C223.199 -77.7424 214.349 -69.9985 203.732 -67.7473C193.115 -65.496 181.883 -68.9856 174.427 -76.8522C171.115 -80.3508 166.352 -81.8482 161.688 -80.8592Z" fill="white"/>
<path d="M-48.1163 10.2437C-56.0735 11.931 -63.92 6.84323 -65.605 -1.10329C-66.1225 -3.54404 -66.0244 -5.97779 -65.3083 -8.3382C-62.2771 -18.3655 -64.7455 -29.4313 -71.7506 -37.2165C-78.7565 -45.0054 -89.5113 -48.6394 -99.8207 -46.701C-107.624 -45.235 -115.312 -50.3563 -116.958 -58.1186C-118.604 -65.8808 -113.537 -73.8994 -105.579 -75.5866C-100.52 -76.6595 -95.3562 -75.0349 -91.7615 -71.2463C-84.5797 -63.6676 -73.7645 -60.3058 -63.5355 -62.4747C-53.3064 -64.6437 -44.7862 -72.1054 -41.2982 -81.9466C-39.5541 -86.8672 -35.4906 -90.4483 -30.4307 -91.5212C-22.4735 -93.2084 -14.6262 -88.1169 -12.942 -80.1741C-11.2579 -72.2314 -16.2444 -64.6111 -23.9712 -62.7841C-34.1802 -60.3718 -42.5347 -52.6859 -45.7767 -42.724C-49.0195 -32.7658 -46.7846 -21.6505 -39.9448 -13.7163C-38.3362 -11.8488 -37.2551 -9.66508 -36.7375 -7.22433C-35.0534 0.718435 -40.1591 8.55649 -48.1163 10.2437ZM-105.339 -74.4546C-112.675 -72.8992 -117.38 -65.6767 -115.827 -58.3545C-114.275 -51.0322 -107.226 -46.4787 -100.033 -47.8311C-89.3291 -49.8413 -78.1634 -46.0704 -70.8898 -37.9845C-63.6162 -29.8986 -61.0547 -18.4125 -64.2019 -8.00301C-64.8596 -5.83181 -64.9508 -3.58817 -64.4739 -1.33922C-62.9213 5.98302 -55.6903 10.6747 -48.3547 9.11924C-41.0192 7.56381 -36.3144 0.341311 -37.867 -6.98093C-38.3439 -9.22988 -39.3378 -11.2434 -40.8201 -12.9609C-47.9208 -21.1974 -50.242 -32.7384 -46.8751 -43.0766C-43.5081 -53.4148 -34.8344 -61.3963 -24.236 -63.903C-17.1164 -65.5855 -12.5548 -72.7777 -14.0715 -79.9307C-15.5883 -87.0837 -22.8552 -91.9446 -30.1907 -90.3892C-34.855 -89.4001 -38.5999 -86.0988 -40.2077 -81.5569C-43.8282 -71.3378 -52.6783 -63.594 -63.2955 -61.3427C-73.9126 -59.0915 -85.1446 -62.5811 -92.6 -70.4476C-95.9128 -73.9462 -100.675 -75.4437 -105.339 -74.4546Z" fill="white"/>
<path d="M-48.1163 10.2437C-56.0735 11.931 -63.92 6.84323 -65.605 -1.10329C-66.1225 -3.54404 -66.0244 -5.97779 -65.3083 -8.3382C-62.2771 -18.3655 -64.7455 -29.4313 -71.7506 -37.2165C-78.7565 -45.0054 -89.5113 -48.6394 -99.8207 -46.701C-107.624 -45.235 -115.312 -50.3563 -116.958 -58.1186C-118.604 -65.8808 -113.537 -73.8994 -105.579 -75.5866C-100.52 -76.6595 -95.3562 -75.0349 -91.7615 -71.2463C-84.5797 -63.6676 -73.7645 -60.3058 -63.5355 -62.4747C-53.3064 -64.6437 -44.7862 -72.1054 -41.2982 -81.9466C-39.5541 -86.8672 -35.4906 -90.4483 -30.4307 -91.5212C-22.4735 -93.2084 -14.6262 -88.1169 -12.942 -80.1741C-11.2579 -72.2314 -16.2444 -64.6111 -23.9712 -62.7841C-34.1802 -60.3718 -42.5347 -52.6859 -45.7767 -42.724C-49.0195 -32.7658 -46.7846 -21.6505 -39.9448 -13.7163C-38.3362 -11.8488 -37.2551 -9.66508 -36.7375 -7.22433C-35.0534 0.718435 -40.1591 8.55649 -48.1163 10.2437ZM-105.339 -74.4546C-112.675 -72.8992 -117.38 -65.6767 -115.827 -58.3545C-114.275 -51.0322 -107.226 -46.4787 -100.033 -47.8311C-89.3291 -49.8413 -78.1634 -46.0704 -70.8898 -37.9845C-63.6162 -29.8986 -61.0547 -18.4125 -64.2019 -8.00301C-64.8596 -5.83181 -64.9508 -3.58817 -64.4739 -1.33922C-62.9213 5.98302 -55.6903 10.6747 -48.3547 9.11924C-41.0192 7.56381 -36.3144 0.341311 -37.867 -6.98093C-38.3439 -9.22988 -39.3378 -11.2434 -40.8201 -12.9609C-47.9208 -21.1974 -50.242 -32.7384 -46.8751 -43.0766C-43.5081 -53.4148 -34.8344 -61.3963 -24.236 -63.903C-17.1164 -65.5855 -12.5548 -72.7777 -14.0715 -79.9307C-15.5883 -87.0837 -22.8552 -91.9446 -30.1907 -90.3892C-34.855 -89.4001 -38.5999 -86.0988 -40.2077 -81.5569C-43.8282 -71.3378 -52.6783 -63.594 -63.2955 -61.3427C-73.9126 -59.0915 -85.1446 -62.5811 -92.6 -70.4476C-95.9128 -73.9462 -100.675 -75.4437 -105.339 -74.4546Z" fill="white"/>
<path d="M47.1274 43.8128C39.1702 45.5001 31.3229 40.4086 29.6387 32.4658C29.1211 30.0251 29.2193 27.5913 29.9353 25.2309C32.9666 15.2036 30.4982 4.13783 23.4931 -3.64737C16.4872 -11.4363 5.73238 -15.0704 -4.57706 -13.1319C-12.3804 -11.6659 -20.0687 -16.7872 -21.7146 -24.5495C-23.3605 -32.3117 -18.293 -40.3303 -10.3358 -42.0176C-5.27592 -43.0904 -0.112535 -41.4658 3.48213 -37.6772C10.6639 -30.0985 21.4791 -26.7367 31.7082 -28.9056C41.9372 -31.0746 50.4574 -38.5363 53.9455 -48.3775C55.6887 -53.3018 59.753 -56.8792 64.8129 -57.9521C72.7701 -59.6393 80.6166 -54.5516 82.3016 -46.605C83.9866 -38.6585 78.9992 -31.042 71.2725 -29.215C61.0635 -26.8027 52.709 -19.1168 49.467 -9.15487C46.225 0.80705 48.4598 11.9224 55.2989 19.8528C56.9074 21.7203 57.9886 23.904 58.5061 26.3448C60.1903 34.2875 55.0846 42.1256 47.1274 43.8128ZM-10.0958 -40.8856C-17.4313 -39.3301 -22.1361 -32.1076 -20.5835 -24.7854C-19.0309 -17.4631 -11.9827 -12.9096 -4.78912 -14.262C5.91455 -16.2722 17.0803 -12.5013 24.3538 -4.41543C31.6274 3.67046 34.1889 15.1566 31.0418 25.5661C30.3841 27.7373 30.2929 29.9809 30.769 32.2261C32.3216 39.5484 39.5526 44.24 46.8881 42.6846C54.2237 41.1292 58.9284 33.9067 57.3758 26.5844C56.899 24.3355 55.9059 22.3257 54.4236 20.6082C47.3228 12.3717 45.0016 0.830661 48.3686 -9.50751C51.7347 -19.8494 60.4093 -27.8273 71.0077 -30.3339C78.131 -32.0173 82.6889 -39.2086 81.1721 -46.3616C79.6554 -53.5146 72.3885 -58.3755 65.053 -56.8201C60.3887 -55.831 56.6438 -52.5297 55.036 -47.9878C51.4154 -37.7688 42.5653 -30.0249 31.9482 -27.7736C21.3311 -25.5224 10.099 -29.012 2.64362 -36.8785C-0.669089 -40.3771 -5.43149 -41.8746 -10.0958 -40.8856Z" fill="white"/>
<path d="M47.1274 43.8128C39.1702 45.5001 31.3229 40.4086 29.6387 32.4658C29.1211 30.0251 29.2193 27.5913 29.9353 25.2309C32.9666 15.2036 30.4982 4.13783 23.4931 -3.64737C16.4872 -11.4363 5.73238 -15.0704 -4.57706 -13.1319C-12.3804 -11.6659 -20.0687 -16.7872 -21.7146 -24.5495C-23.3605 -32.3117 -18.293 -40.3303 -10.3358 -42.0176C-5.27592 -43.0904 -0.112535 -41.4658 3.48213 -37.6772C10.6639 -30.0985 21.4791 -26.7367 31.7082 -28.9056C41.9372 -31.0746 50.4574 -38.5363 53.9455 -48.3775C55.6887 -53.3018 59.753 -56.8792 64.8129 -57.9521C72.7701 -59.6393 80.6166 -54.5516 82.3016 -46.605C83.9866 -38.6585 78.9992 -31.042 71.2725 -29.215C61.0635 -26.8027 52.709 -19.1168 49.467 -9.15487C46.225 0.80705 48.4598 11.9224 55.2989 19.8528C56.9074 21.7203 57.9886 23.904 58.5061 26.3448C60.1903 34.2875 55.0846 42.1256 47.1274 43.8128ZM-10.0958 -40.8856C-17.4313 -39.3301 -22.1361 -32.1076 -20.5835 -24.7854C-19.0309 -17.4631 -11.9827 -12.9096 -4.78912 -14.262C5.91455 -16.2722 17.0803 -12.5013 24.3538 -4.41543C31.6274 3.67046 34.1889 15.1566 31.0418 25.5661C30.3841 27.7373 30.2929 29.9809 30.769 32.2261C32.3216 39.5484 39.5526 44.24 46.8881 42.6846C54.2237 41.1292 58.9284 33.9067 57.3758 26.5844C56.899 24.3355 55.9059 22.3257 54.4236 20.6082C47.3228 12.3717 45.0016 0.830661 48.3686 -9.50751C51.7347 -19.8494 60.4093 -27.8273 71.0077 -30.3339C78.131 -32.0173 82.6889 -39.2086 81.1721 -46.3616C79.6554 -53.5146 72.3885 -58.3755 65.053 -56.8201C60.3887 -55.831 56.6438 -52.5297 55.036 -47.9878C51.4154 -37.7688 42.5653 -30.0249 31.9482 -27.7736C21.3311 -25.5224 10.099 -29.012 2.64362 -36.8785C-0.669089 -40.3771 -5.43149 -41.8746 -10.0958 -40.8856Z" fill="white"/>
<path d="M140.767 73.9925C132.81 75.6797 124.963 70.592 123.278 62.6455C122.761 60.2047 122.859 57.771 123.575 55.4106C126.606 45.3833 124.138 34.3175 117.133 26.5323C110.127 18.7434 99.372 15.1093 89.0626 17.0478C81.2592 18.5137 73.571 13.3925 71.9251 5.6302C70.2792 -2.13205 75.3466 -10.1506 83.3038 -11.8379C88.3637 -12.9108 93.5271 -11.2861 97.1218 -7.49756C104.304 0.0811925 115.119 3.44302 125.348 1.27405C135.577 -0.894916 144.097 -8.3566 147.585 -18.1978C149.329 -23.1184 153.393 -26.6995 158.453 -27.7724C166.41 -29.4596 174.257 -24.3681 175.941 -16.4253C177.625 -8.48258 172.639 -0.862353 164.912 0.964662C154.703 3.37695 146.349 11.0629 143.107 21.0248C139.864 30.983 142.099 42.0983 148.938 50.0325C150.547 51.9 151.628 54.0837 152.146 56.5244C153.83 64.4672 148.724 72.3052 140.767 73.9925ZM83.5439 -10.7059C76.2083 -9.15044 71.5036 -1.92794 73.0562 5.3943C74.6088 12.7165 81.657 17.2701 88.8505 15.9177C99.5542 13.9075 110.72 17.6784 117.993 25.7643C125.267 33.8501 127.829 45.3363 124.681 55.7458C124.024 57.917 123.933 60.1606 124.409 62.4096C125.962 69.7318 133.193 74.4234 140.529 72.868C147.864 71.3126 152.569 64.0901 151.016 56.7678C150.539 54.5189 149.545 52.5053 148.063 50.7879C140.962 42.5514 138.641 31.0103 142.008 20.6722C145.375 10.334 154.049 2.35244 164.647 -0.154214C171.767 -1.83677 176.328 -9.02891 174.812 -16.1819C173.295 -23.3349 166.028 -28.1958 158.693 -26.6404C154.028 -25.6514 150.283 -22.35 148.676 -17.8081C145.055 -7.58906 136.205 0.154796 125.588 2.40605C114.971 4.6573 103.739 1.16773 96.2832 -6.69883C92.9705 -10.1974 88.2082 -11.6949 83.5439 -10.7059Z" fill="white"/>
<path d="M140.767 73.9925C132.81 75.6797 124.963 70.592 123.278 62.6455C122.761 60.2047 122.859 57.771 123.575 55.4106C126.606 45.3833 124.138 34.3175 117.133 26.5323C110.127 18.7434 99.372 15.1093 89.0626 17.0478C81.2592 18.5137 73.571 13.3925 71.9251 5.6302C70.2792 -2.13205 75.3466 -10.1506 83.3038 -11.8379C88.3637 -12.9108 93.5271 -11.2861 97.1218 -7.49756C104.304 0.0811925 115.119 3.44302 125.348 1.27405C135.577 -0.894916 144.097 -8.3566 147.585 -18.1978C149.329 -23.1184 153.393 -26.6995 158.453 -27.7724C166.41 -29.4596 174.257 -24.3681 175.941 -16.4253C177.625 -8.48258 172.639 -0.862353 164.912 0.964662C154.703 3.37695 146.349 11.0629 143.107 21.0248C139.864 30.983 142.099 42.0983 148.938 50.0325C150.547 51.9 151.628 54.0837 152.146 56.5244C153.83 64.4672 148.724 72.3052 140.767 73.9925ZM83.5439 -10.7059C76.2083 -9.15044 71.5036 -1.92794 73.0562 5.3943C74.6088 12.7165 81.657 17.2701 88.8505 15.9177C99.5542 13.9075 110.72 17.6784 117.993 25.7643C125.267 33.8501 127.829 45.3363 124.681 55.7458C124.024 57.917 123.933 60.1606 124.409 62.4096C125.962 69.7318 133.193 74.4234 140.529 72.868C147.864 71.3126 152.569 64.0901 151.016 56.7678C150.539 54.5189 149.545 52.5053 148.063 50.7879C140.962 42.5514 138.641 31.0103 142.008 20.6722C145.375 10.334 154.049 2.35244 164.647 -0.154214C171.767 -1.83677 176.328 -9.02891 174.812 -16.1819C173.295 -23.3349 166.028 -28.1958 158.693 -26.6404C154.028 -25.6514 150.283 -22.35 148.676 -17.8081C145.055 -7.58906 136.205 0.154796 125.588 2.40605C114.971 4.6573 103.739 1.16773 96.2832 -6.69883C92.9705 -10.1974 88.2082 -11.6949 83.5439 -10.7059Z" fill="white"/>
<path d="M239.974 103.173C232.017 104.86 224.17 99.7684 222.485 91.8256C221.968 89.3849 222.066 86.9511 222.782 84.5907C225.813 74.5634 223.345 63.4977 216.34 55.7125C209.334 47.9235 198.579 44.2895 188.27 46.2279C180.466 47.6939 172.778 42.5726 171.132 34.8104C169.486 27.0481 174.554 19.0296 182.511 17.3423C187.571 16.2694 192.734 17.894 196.329 21.6826C203.511 29.2614 214.326 32.6232 224.555 30.4542C234.784 28.2853 243.304 20.8236 246.792 10.9824C248.536 6.06179 252.6 2.4807 257.66 1.4078C265.617 -0.279436 273.464 4.81206 275.148 12.7548C276.832 20.6976 271.846 28.3178 264.119 30.1448C253.91 32.5571 245.556 40.243 242.314 50.205C239.072 60.1669 241.306 71.2784 248.146 79.2126C249.754 81.0802 250.835 83.2638 251.353 85.7046C253.037 93.6474 247.931 101.485 239.974 103.173ZM182.751 18.4743C175.415 20.0297 170.711 27.2522 172.263 34.5745C173.816 41.8967 180.864 46.4503 188.058 45.0979C198.761 43.0876 209.927 46.8585 217.201 54.9444C224.474 63.0303 227.036 74.5165 223.888 84.9259C223.231 87.0971 223.14 89.3408 223.616 91.586C225.168 98.9082 232.399 103.6 239.735 102.044C247.07 100.489 251.775 93.2665 250.223 85.9443C249.746 83.6953 248.753 81.6855 247.27 79.9681C240.169 71.7316 237.848 60.1905 241.215 49.8523C244.581 39.5104 253.256 31.5326 263.854 29.0259C270.974 27.3434 275.536 20.1512 274.019 12.9982C272.502 5.84523 265.235 0.984355 257.9 2.53978C253.235 3.5288 249.494 6.82931 247.883 11.3721C244.262 21.5911 235.412 29.335 224.795 31.5862C214.178 33.8375 202.946 30.3479 195.49 22.4813C192.178 18.9827 187.415 17.4853 182.751 18.4743Z" fill="white"/>
<path d="M239.974 103.173C232.017 104.86 224.17 99.7684 222.485 91.8256C221.968 89.3849 222.066 86.9511 222.782 84.5907C225.813 74.5634 223.345 63.4977 216.34 55.7125C209.334 47.9235 198.579 44.2895 188.27 46.2279C180.466 47.6939 172.778 42.5726 171.132 34.8104C169.486 27.0481 174.554 19.0296 182.511 17.3423C187.571 16.2694 192.734 17.894 196.329 21.6826C203.511 29.2614 214.326 32.6232 224.555 30.4542C234.784 28.2853 243.304 20.8236 246.792 10.9824C248.536 6.06178 252.6 2.4807 257.66 1.4078C265.617 -0.279437 273.464 4.81206 275.148 12.7548C276.832 20.6976 271.846 28.3178 264.119 30.1448C253.91 32.5571 245.556 40.243 242.314 50.205C239.072 60.1669 241.306 71.2784 248.146 79.2126C249.754 81.0801 250.835 83.2638 251.353 85.7046C253.037 93.6474 247.931 101.485 239.974 103.173ZM182.751 18.4743C175.415 20.0297 170.711 27.2522 172.263 34.5745C173.816 41.8967 180.864 46.4503 188.058 45.0979C198.761 43.0876 209.927 46.8585 217.201 54.9444C224.474 63.0303 227.036 74.5165 223.888 84.9259C223.231 87.0971 223.14 89.3408 223.616 91.586C225.168 98.9082 232.399 103.6 239.735 102.044C247.07 100.489 251.775 93.2665 250.223 85.9443C249.746 83.6953 248.753 81.6855 247.27 79.9681C240.169 71.7316 237.848 60.1905 241.215 49.8523C244.581 39.5104 253.256 31.5326 263.854 29.0259C270.974 27.3434 275.536 20.1512 274.019 12.9982C272.502 5.84523 265.235 0.984355 257.9 2.53978C253.235 3.5288 249.494 6.82931 247.883 11.3721C244.262 21.5911 235.412 29.335 224.795 31.5862C214.178 33.8375 202.946 30.3479 195.49 22.4813C192.178 18.9827 187.415 17.4853 182.751 18.4743Z" fill="white"/>
<path d="M-27.0538 109.577C-35.011 111.264 -42.8575 106.177 -44.5425 98.2302C-45.06 95.7894 -44.9619 93.3557 -44.2459 90.9953C-41.2146 80.968 -43.683 69.9022 -50.6881 62.117C-57.694 54.3281 -68.4488 50.694 -78.7582 52.6325C-86.5615 54.0985 -94.2498 48.9772 -95.8957 41.2149C-97.5416 33.4527 -92.4742 25.4341 -84.517 23.7469C-79.4571 22.674 -74.2937 24.2986 -70.699 28.0872C-63.5172 35.6659 -52.702 39.0277 -42.473 36.8588C-32.2439 34.6898 -23.7237 27.2281 -20.2357 17.3869C-18.4916 12.4663 -14.4281 8.88524 -9.36823 7.81234C-1.41104 6.1251 6.43627 11.2166 8.12045 19.1594C9.80463 27.1021 4.81806 34.7224 -2.9087 36.5494C-13.1177 38.9617 -21.4722 46.6476 -24.7142 56.6095C-27.957 66.5677 -25.7222 77.683 -18.8823 85.6172C-17.2737 87.4847 -16.1926 89.6684 -15.675 92.1091C-13.9909 100.052 -19.0966 107.89 -27.0538 109.577ZM-84.2769 24.8789C-91.6125 26.4343 -96.3172 33.6568 -94.7646 40.979C-93.212 48.3013 -86.1638 52.8548 -78.9703 51.5024C-68.2666 49.4922 -57.1009 53.2631 -49.8273 61.349C-42.5537 69.4349 -39.9922 80.921 -43.1394 91.3305C-43.7971 93.5017 -43.8883 95.7453 -43.4114 97.9943C-41.8588 105.317 -34.6278 110.008 -27.2922 108.453C-19.9567 106.897 -15.2519 99.6748 -16.8045 92.3526C-17.2814 90.1036 -18.2753 88.0901 -19.7576 86.3726C-26.8583 78.1361 -29.1795 66.5951 -25.8126 56.2569C-22.4456 45.9187 -13.7719 37.9371 -3.1735 35.4305C3.9461 33.7479 8.50769 26.5558 6.99097 19.4028C5.47425 12.2498 -1.79266 7.38892 -9.12821 8.94434C-13.7925 9.93336 -17.5374 13.2347 -19.1452 17.7766C-22.7657 27.9957 -31.6158 35.7395 -42.233 37.9908C-52.8501 40.242 -64.0821 36.7524 -71.5375 28.8859C-74.8503 25.3873 -79.6126 23.8898 -84.2769 24.8789Z" fill="white"/>
<path d="M-27.0538 109.577C-35.011 111.264 -42.8575 106.177 -44.5425 98.2302C-45.06 95.7894 -44.9619 93.3557 -44.2459 90.9953C-41.2146 80.968 -43.683 69.9022 -50.6881 62.117C-57.694 54.3281 -68.4488 50.694 -78.7582 52.6325C-86.5615 54.0985 -94.2498 48.9772 -95.8957 41.2149C-97.5416 33.4527 -92.4742 25.4341 -84.517 23.7469C-79.4571 22.674 -74.2937 24.2986 -70.699 28.0872C-63.5172 35.6659 -52.702 39.0277 -42.473 36.8588C-32.2439 34.6898 -23.7237 27.2281 -20.2357 17.3869C-18.4916 12.4663 -14.4281 8.88524 -9.36823 7.81234C-1.41104 6.1251 6.43627 11.2166 8.12045 19.1594C9.80463 27.1021 4.81806 34.7224 -2.9087 36.5494C-13.1177 38.9617 -21.4722 46.6476 -24.7142 56.6095C-27.957 66.5677 -25.7222 77.683 -18.8823 85.6172C-17.2737 87.4847 -16.1926 89.6684 -15.675 92.1091C-13.9909 100.052 -19.0966 107.89 -27.0538 109.577ZM-84.2769 24.8789C-91.6125 26.4343 -96.3172 33.6568 -94.7646 40.979C-93.212 48.3013 -86.1638 52.8548 -78.9703 51.5024C-68.2666 49.4922 -57.1009 53.2631 -49.8273 61.349C-42.5537 69.4349 -39.9922 80.921 -43.1394 91.3305C-43.7971 93.5017 -43.8883 95.7453 -43.4114 97.9943C-41.8588 105.317 -34.6278 110.008 -27.2922 108.453C-19.9567 106.897 -15.2519 99.6748 -16.8045 92.3526C-17.2814 90.1036 -18.2753 88.0901 -19.7576 86.3726C-26.8583 78.1361 -29.1795 66.5951 -25.8126 56.2569C-22.4456 45.9187 -13.7719 37.9371 -3.1735 35.4305C3.9461 33.7479 8.50769 26.5558 6.99097 19.4028C5.47425 12.2498 -1.79266 7.38892 -9.12821 8.94434C-13.7925 9.93336 -17.5374 13.2347 -19.1452 17.7766C-22.7657 27.9957 -31.6158 35.7395 -42.233 37.9908C-52.8501 40.242 -64.0821 36.7524 -71.5375 28.8859C-74.8503 25.3873 -79.6126 23.8898 -84.2769 24.8789Z" fill="white"/>
<path d="M68.1894 143.142C60.2322 144.83 52.3849 139.738 50.7007 131.795C50.1832 129.355 50.2813 126.921 50.9973 124.56C54.0286 114.533 51.5602 103.467 44.5551 95.6822C37.5492 87.8933 26.7944 84.2592 16.485 86.1977C8.68163 87.6636 0.993356 82.5424 -0.652549 74.7801C-2.29845 67.0179 2.769 58.9993 10.7262 57.312C15.7861 56.2391 20.9495 57.8638 24.5441 61.6523C31.7259 69.2311 42.5411 72.5929 52.7702 70.424C62.9992 68.255 71.5194 60.7933 75.0075 50.9521C76.7507 46.0278 80.815 42.4504 85.875 41.3775C93.8321 39.6903 101.679 44.778 103.364 52.7246C105.049 60.6711 100.061 68.2875 92.3345 70.1146C82.1255 72.5268 73.771 80.2128 70.529 90.1747C67.287 100.137 69.5218 111.252 76.3609 119.182C77.9695 121.05 79.0506 123.234 79.5681 125.674C81.2523 133.617 76.1466 141.455 68.1894 143.142ZM10.9662 58.444C3.63069 59.9995 -1.07407 67.222 0.478533 74.5442C2.03114 81.8664 9.07935 86.42 16.2729 85.0676C26.9766 83.0574 38.1423 86.8283 45.4158 94.9142C52.6894 103 55.2509 114.486 52.1038 124.896C51.4461 127.067 51.3549 129.311 51.831 131.556C53.3836 138.878 60.6146 143.57 67.9501 142.014C75.2857 140.459 79.9904 133.236 78.4378 125.914C77.961 123.665 76.9679 121.655 75.4856 119.938C68.3848 111.701 66.0636 100.16 69.4306 89.8221C72.7967 79.4801 81.4713 71.5023 92.0697 68.9957C99.193 67.3123 103.751 60.121 102.234 52.968C100.717 45.815 93.4505 40.9541 86.115 42.5095C81.4507 43.4985 77.7058 46.7999 76.098 51.3418C72.4775 61.5608 63.6273 69.3047 53.0102 71.556C42.3931 73.8072 31.1611 70.3176 23.7056 62.4511C20.3929 58.9525 15.6305 57.455 10.9662 58.444Z" fill="white"/>
<path d="M68.1894 143.142C60.2322 144.83 52.3849 139.738 50.7007 131.795C50.1832 129.355 50.2813 126.921 50.9973 124.56C54.0286 114.533 51.5602 103.467 44.5551 95.6822C37.5492 87.8933 26.7944 84.2592 16.485 86.1977C8.68163 87.6636 0.993356 82.5424 -0.652549 74.7801C-2.29845 67.0179 2.769 58.9993 10.7262 57.312C15.7861 56.2391 20.9495 57.8638 24.5441 61.6523C31.7259 69.2311 42.5411 72.5929 52.7702 70.424C62.9992 68.255 71.5194 60.7933 75.0075 50.9521C76.7507 46.0278 80.815 42.4504 85.875 41.3775C93.8321 39.6903 101.679 44.778 103.364 52.7246C105.049 60.6711 100.061 68.2875 92.3345 70.1146C82.1255 72.5268 73.771 80.2128 70.529 90.1747C67.287 100.137 69.5218 111.252 76.3609 119.182C77.9695 121.05 79.0506 123.234 79.5681 125.674C81.2523 133.617 76.1466 141.455 68.1894 143.142ZM10.9662 58.444C3.63069 59.9995 -1.07407 67.222 0.478533 74.5442C2.03114 81.8664 9.07935 86.42 16.2729 85.0676C26.9766 83.0574 38.1423 86.8283 45.4158 94.9142C52.6894 103 55.2509 114.486 52.1038 124.896C51.4461 127.067 51.3549 129.311 51.831 131.556C53.3836 138.878 60.6146 143.57 67.9501 142.014C75.2857 140.459 79.9904 133.236 78.4378 125.914C77.961 123.665 76.9679 121.655 75.4856 119.938C68.3848 111.701 66.0636 100.16 69.4306 89.8221C72.7967 79.4801 81.4713 71.5023 92.0697 68.9957C99.193 67.3123 103.751 60.121 102.234 52.968C100.717 45.815 93.4505 40.9541 86.115 42.5095C81.4507 43.4985 77.7058 46.7999 76.098 51.3418C72.4775 61.5608 63.6273 69.3047 53.0102 71.556C42.3931 73.8072 31.1611 70.3176 23.7056 62.4511C20.3929 58.9525 15.6305 57.455 10.9662 58.444Z" fill="white"/>
<path d="M164.333 179.893C156.376 181.58 148.53 176.493 146.845 168.546C146.327 166.105 146.425 163.672 147.141 161.311C150.173 151.284 147.704 140.218 140.699 132.433C133.693 124.644 122.938 121.01 112.629 122.948C104.826 124.414 97.1374 119.293 95.4915 111.531C93.8456 103.769 98.913 95.75 106.87 94.0628C111.93 92.9899 117.093 94.6145 120.688 98.4031C127.87 105.982 138.685 109.344 148.914 107.175C159.143 105.006 167.663 97.544 171.152 87.7028C172.896 82.7823 176.959 79.2012 182.019 78.1283C189.976 76.441 197.823 81.5325 199.508 89.4753C201.192 97.4181 196.205 105.038 188.478 106.865C178.27 109.278 169.915 116.964 166.673 126.925C163.43 136.884 165.665 147.999 172.505 155.933C174.113 157.801 175.195 159.984 175.712 162.425C177.396 170.368 172.291 178.206 164.333 179.893ZM107.11 95.1948C99.7747 96.7502 95.07 103.973 96.6226 111.295C98.1752 118.617 105.223 123.171 112.417 121.818C123.121 119.808 134.286 123.579 141.56 131.665C148.833 139.751 151.395 151.237 148.248 161.646C147.59 163.818 147.499 166.061 147.976 168.31C149.528 175.632 156.759 180.324 164.095 178.769C171.431 177.213 176.135 169.991 174.583 162.669C174.106 160.42 173.112 158.406 171.63 156.689C164.529 148.452 162.208 136.911 165.575 126.573C168.942 116.235 177.615 108.253 188.214 105.746C195.333 104.064 199.895 96.8717 198.378 89.7187C196.861 82.5657 189.595 77.7048 182.259 79.2603C177.595 80.2493 173.85 83.5506 172.242 88.0925C168.621 98.3116 159.771 106.055 149.154 108.307C138.537 110.558 127.305 107.068 119.85 99.2018C116.537 95.7032 111.775 94.2058 107.11 95.1948Z" fill="white"/>
<path d="M261.036 202.502C253.078 204.19 245.231 199.098 243.547 191.155C243.029 188.715 243.127 186.281 243.844 183.92C246.875 173.893 244.406 162.827 237.401 155.042C230.395 147.253 219.641 143.619 209.331 145.558C201.528 147.024 193.84 141.902 192.194 134.14C190.548 126.378 195.615 118.359 203.572 116.672C208.632 115.599 213.796 117.224 217.39 121.012C224.572 128.591 235.387 131.953 245.616 129.784C255.845 127.615 264.366 120.153 267.854 110.312C269.598 105.391 273.661 101.81 278.721 100.737C286.678 99.0502 294.526 104.142 296.21 112.084C297.894 120.027 292.907 127.647 285.181 129.474C274.972 131.887 266.617 139.573 263.375 149.535C260.133 159.496 262.367 170.608 269.207 178.542C270.816 180.41 271.897 182.593 272.414 185.034C274.099 192.977 268.993 200.815 261.036 202.502ZM203.812 117.804C196.477 119.359 191.772 126.582 193.325 133.904C194.877 141.226 201.926 145.78 209.119 144.427C219.823 142.417 230.988 146.188 238.262 154.274C245.536 162.36 248.097 173.846 244.95 184.256C244.292 186.427 244.201 188.67 244.677 190.916C246.23 198.238 253.461 202.929 260.796 201.374C268.132 199.819 272.837 192.596 271.284 185.274C270.807 183.025 269.814 181.015 268.332 179.298C261.231 171.061 258.91 159.52 262.277 149.182C265.643 138.84 274.317 130.862 284.916 128.356C292.035 126.673 296.597 119.481 295.08 112.328C293.564 105.175 286.297 100.314 278.961 101.869C274.297 102.858 270.556 106.159 268.944 110.702C265.324 120.921 256.474 128.665 245.856 130.916C235.239 133.167 224.007 129.678 216.552 121.811C213.239 118.312 208.477 116.815 203.812 117.804Z" fill="white"/>
<path d="M261.036 202.502C253.078 204.19 245.231 199.098 243.547 191.155C243.029 188.715 243.127 186.281 243.844 183.92C246.875 173.893 244.406 162.827 237.401 155.042C230.395 147.253 219.641 143.619 209.331 145.558C201.528 147.024 193.84 141.902 192.194 134.14C190.548 126.378 195.615 118.359 203.572 116.672C208.632 115.599 213.796 117.224 217.39 121.012C224.572 128.591 235.387 131.953 245.616 129.784C255.845 127.615 264.366 120.153 267.854 110.312C269.598 105.391 273.661 101.81 278.721 100.737C286.678 99.0502 294.526 104.142 296.21 112.084C297.894 120.027 292.907 127.647 285.181 129.474C274.972 131.887 266.617 139.573 263.375 149.535C260.133 159.496 262.367 170.608 269.207 178.542C270.816 180.41 271.897 182.593 272.414 185.034C274.099 192.977 268.993 200.815 261.036 202.502ZM203.812 117.804C196.477 119.359 191.772 126.582 193.325 133.904C194.877 141.226 201.926 145.78 209.119 144.427C219.823 142.417 230.988 146.188 238.262 154.274C245.536 162.36 248.097 173.846 244.95 184.256C244.292 186.427 244.201 188.67 244.677 190.916C246.23 198.238 253.461 202.929 260.796 201.374C268.132 199.819 272.837 192.596 271.284 185.274C270.807 183.025 269.814 181.015 268.332 179.298C261.231 171.061 258.91 159.52 262.277 149.182C265.643 138.84 274.317 130.862 284.916 128.356C292.035 126.673 296.597 119.481 295.08 112.328C293.564 105.175 286.297 100.314 278.961 101.869C274.297 102.858 270.556 106.159 268.944 110.702C265.324 120.921 256.474 128.665 245.856 130.916C235.239 133.167 224.007 129.678 216.552 121.811C213.239 118.312 208.477 116.815 203.812 117.804Z" fill="white"/>
<path d="M-5.99178 208.907C-13.949 210.594 -21.7955 205.506 -23.4805 197.56C-23.998 195.119 -23.8999 192.685 -23.1838 190.325C-20.1525 180.298 -22.621 169.232 -29.6261 161.447C-36.632 153.658 -47.3868 150.024 -57.6962 151.962C-65.4995 153.428 -73.1878 148.307 -74.8337 140.545C-76.4796 132.782 -71.4122 124.764 -63.455 123.076C-58.3951 122.004 -53.2317 123.628 -49.637 127.417C-42.4552 134.995 -31.64 138.357 -21.411 136.188C-11.1819 134.019 -2.66174 126.558 0.826338 116.717C2.57038 111.796 6.63388 108.215 11.6938 107.142C19.651 105.455 27.4983 110.546 29.1825 118.489C30.8666 126.432 25.8801 134.052 18.1533 135.879C7.94434 138.291 -0.410178 145.977 -3.65218 155.939C-6.89498 165.897 -4.66014 177.013 2.17971 184.947C3.78828 186.814 4.86943 188.998 5.38697 191.439C7.07115 199.382 1.96542 207.22 -5.99178 208.907ZM-63.2149 124.208C-70.5505 125.764 -75.2552 132.986 -73.7026 140.309C-72.15 147.631 -65.1018 152.184 -57.9083 150.832C-47.2046 148.822 -36.0389 152.593 -28.7653 160.679C-21.4917 168.764 -18.9302 180.251 -22.0773 190.66C-22.7351 192.831 -22.8262 195.075 -22.3494 197.324C-20.7968 204.646 -13.5657 209.338 -6.23021 207.782C1.10533 206.227 5.81009 199.004 4.25748 191.682C3.78062 189.433 2.78673 187.42 1.30445 185.702C-5.79633 177.466 -8.11752 165.925 -4.75057 155.586C-1.38362 145.248 7.29011 137.267 17.8885 134.76C25.0081 133.078 29.5697 125.885 28.053 118.732C26.5363 111.579 19.2693 106.719 11.9338 108.274C7.26951 109.263 3.52465 112.564 1.91685 117.106C-1.7037 127.325 -10.5538 135.069 -21.1709 137.32C-31.7881 139.572 -43.0201 136.082 -50.4755 128.215C-53.7882 124.717 -58.5506 123.219 -63.2149 124.208Z" fill="white"/>
<path d="M-5.99178 208.907C-13.949 210.594 -21.7955 205.506 -23.4805 197.56C-23.998 195.119 -23.8999 192.685 -23.1838 190.325C-20.1525 180.298 -22.621 169.232 -29.6261 161.447C-36.632 153.658 -47.3868 150.024 -57.6962 151.962C-65.4995 153.428 -73.1878 148.307 -74.8337 140.545C-76.4796 132.782 -71.4122 124.764 -63.455 123.076C-58.3951 122.004 -53.2317 123.628 -49.637 127.417C-42.4552 134.995 -31.64 138.357 -21.411 136.188C-11.1819 134.019 -2.66174 126.558 0.826338 116.717C2.57038 111.796 6.63388 108.215 11.6938 107.142C19.651 105.455 27.4983 110.546 29.1825 118.489C30.8666 126.432 25.8801 134.052 18.1533 135.879C7.94434 138.291 -0.410178 145.977 -3.65218 155.939C-6.89498 165.897 -4.66014 177.013 2.17971 184.947C3.78828 186.814 4.86943 188.998 5.38697 191.439C7.07115 199.382 1.96542 207.22 -5.99178 208.907ZM-63.2149 124.208C-70.5505 125.764 -75.2552 132.986 -73.7026 140.309C-72.15 147.631 -65.1018 152.184 -57.9083 150.832C-47.2046 148.822 -36.0389 152.593 -28.7653 160.679C-21.4917 168.764 -18.9302 180.251 -22.0773 190.66C-22.7351 192.831 -22.8262 195.075 -22.3494 197.324C-20.7968 204.646 -13.5657 209.338 -6.23021 207.782C1.10533 206.227 5.81009 199.004 4.25748 191.682C3.78062 189.433 2.78673 187.42 1.30445 185.702C-5.79633 177.466 -8.11752 165.925 -4.75057 155.586C-1.38362 145.248 7.29011 137.267 17.8885 134.76C25.0081 133.078 29.5697 125.885 28.053 118.732C26.5363 111.579 19.2693 106.719 11.9338 108.274C7.26951 109.263 3.52465 112.564 1.91685 117.106C-1.7037 127.325 -10.5538 135.069 -21.1709 137.32C-31.7881 139.572 -43.0201 136.082 -50.4755 128.215C-53.7882 124.717 -58.5506 123.219 -63.2149 124.208Z" fill="white"/>
<path d="M91.4672 252.923C83.51 254.611 75.6627 249.519 73.9785 241.576C73.461 239.136 73.5591 236.702 74.2751 234.341C77.3064 224.314 74.838 213.248 67.8329 205.463C60.827 197.674 50.0722 194.04 39.7628 195.979C31.9595 197.445 24.2712 192.323 22.6253 184.561C20.9794 176.799 26.0468 168.78 34.004 167.093C39.0639 166.02 44.2273 167.645 47.822 171.433C55.0038 179.012 65.8189 182.374 76.048 180.205C86.2771 178.036 94.7973 170.574 98.2853 160.733C100.029 155.809 104.093 152.231 109.153 151.159C117.11 149.471 124.956 154.559 126.641 162.506C128.326 170.452 123.339 178.069 115.612 179.896C105.403 182.308 97.0488 189.994 93.8068 199.956C90.5648 209.918 92.7997 221.033 99.6387 228.963C101.247 230.831 102.328 233.015 102.846 235.455C104.53 243.398 99.4244 251.236 91.4672 252.923ZM34.2441 168.225C26.9085 169.78 22.2038 177.003 23.7564 184.325C25.309 191.647 32.3572 196.201 39.5507 194.849C50.2544 192.838 61.4201 196.609 68.6937 204.695C75.9673 212.781 78.5288 224.267 75.3817 234.677C74.7239 236.848 74.6327 239.092 75.1088 241.337C76.6614 248.659 83.8924 253.351 91.228 251.795C98.5635 250.24 103.268 243.017 101.716 235.695C101.239 233.446 100.246 231.436 98.7634 229.719C91.6627 221.482 89.3415 209.941 92.7084 199.603C96.0746 189.261 104.749 181.283 115.347 178.777C122.471 177.093 127.029 169.902 125.512 162.749C123.995 155.596 116.728 150.735 109.393 152.291C104.729 153.28 100.984 156.581 99.3758 161.123C95.7553 171.342 86.9052 179.086 76.288 181.337C65.6709 183.588 54.4389 180.099 46.9835 172.232C43.6707 168.733 38.9084 167.236 34.2441 168.225Z" fill="white"/>
<path d="M91.4672 252.923C83.51 254.611 75.6627 249.519 73.9785 241.576C73.461 239.136 73.5591 236.702 74.2751 234.341C77.3064 224.314 74.838 213.248 67.8329 205.463C60.827 197.674 50.0722 194.04 39.7628 195.979C31.9595 197.445 24.2712 192.323 22.6253 184.561C20.9794 176.799 26.0468 168.78 34.004 167.093C39.0639 166.02 44.2273 167.645 47.822 171.433C55.0038 179.012 65.8189 182.374 76.048 180.205C86.2771 178.036 94.7973 170.574 98.2853 160.733C100.029 155.809 104.093 152.231 109.153 151.159C117.11 149.471 124.956 154.559 126.641 162.506C128.326 170.452 123.339 178.069 115.612 179.896C105.403 182.308 97.0488 189.994 93.8068 199.956C90.5648 209.918 92.7997 221.033 99.6387 228.963C101.247 230.831 102.328 233.015 102.846 235.455C104.53 243.398 99.4244 251.236 91.4672 252.923ZM34.2441 168.225C26.9085 169.78 22.2038 177.003 23.7564 184.325C25.309 191.647 32.3572 196.201 39.5507 194.849C50.2544 192.838 61.4201 196.609 68.6937 204.695C75.9673 212.781 78.5288 224.267 75.3817 234.677C74.7239 236.848 74.6327 239.092 75.1088 241.337C76.6614 248.659 83.8924 253.351 91.228 251.795C98.5635 250.24 103.268 243.017 101.716 235.695C101.239 233.446 100.246 231.436 98.7634 229.719C91.6627 221.482 89.3415 209.941 92.7084 199.603C96.0746 189.261 104.749 181.283 115.347 178.777C122.471 177.093 127.029 169.902 125.512 162.749C123.995 155.596 116.728 150.735 109.393 152.291C104.729 153.28 100.984 156.581 99.3758 161.123C95.7553 171.342 86.9052 179.086 76.288 181.337C65.6709 183.588 54.4389 180.099 46.9835 172.232C43.6707 168.733 38.9084 167.236 34.2441 168.225Z" fill="white"/>
<path d="M185.107 283.103C177.15 284.791 169.303 279.703 167.618 271.756C167.101 269.316 167.199 266.882 167.915 264.521C170.946 254.494 168.478 243.428 161.473 235.643C154.467 227.854 143.712 224.22 133.402 226.159C125.599 227.625 117.911 222.503 116.265 214.741C114.619 206.979 119.686 198.96 127.644 197.273C132.704 196.2 137.867 197.825 141.462 201.613C148.643 209.192 159.459 212.554 169.688 210.385C179.917 208.216 188.437 200.754 191.925 190.913C193.669 185.992 197.732 182.411 202.792 181.338C210.75 179.651 218.597 184.743 220.281 192.686C221.965 200.628 216.979 208.248 209.252 210.076C199.043 212.488 190.688 220.174 187.446 230.136C184.204 240.094 186.438 251.209 193.278 259.143C194.887 261.011 195.968 263.195 196.486 265.635C198.17 273.578 193.064 281.416 185.107 283.103ZM127.884 198.405C120.548 199.96 115.843 207.183 117.396 214.505C118.949 221.827 125.997 226.381 133.19 225.029C143.894 223.018 155.06 226.789 162.333 234.875C169.607 242.961 172.168 254.447 169.021 264.857C168.364 267.028 168.272 269.271 168.749 271.52C170.302 278.843 177.533 283.534 184.868 281.979C192.204 280.423 196.909 273.201 195.356 265.879C194.879 263.63 193.885 261.616 192.403 259.899C185.302 251.662 182.981 240.121 186.348 229.783C189.715 219.445 198.389 211.463 208.987 208.957C216.107 207.274 220.668 200.082 219.152 192.929C217.635 185.776 210.368 180.915 203.032 182.47C198.368 183.459 194.623 186.761 193.015 191.303C189.395 201.522 180.545 209.266 169.928 211.517C159.311 213.768 148.079 210.279 140.623 202.412C137.31 198.913 132.548 197.416 127.884 198.405Z" fill="white"/>
<path d="M185.107 283.103C177.15 284.791 169.303 279.703 167.618 271.756C167.101 269.316 167.199 266.882 167.915 264.521C170.946 254.494 168.478 243.428 161.473 235.643C154.467 227.854 143.712 224.22 133.402 226.159C125.599 227.625 117.911 222.503 116.265 214.741C114.619 206.979 119.686 198.96 127.644 197.273C132.704 196.2 137.867 197.825 141.462 201.613C148.643 209.192 159.459 212.554 169.688 210.385C179.917 208.216 188.437 200.754 191.925 190.913C193.669 185.992 197.732 182.411 202.792 181.338C210.75 179.651 218.597 184.743 220.281 192.686C221.965 200.628 216.979 208.248 209.252 210.076C199.043 212.488 190.688 220.174 187.446 230.136C184.204 240.094 186.438 251.209 193.278 259.143C194.887 261.011 195.968 263.195 196.486 265.635C198.17 273.578 193.064 281.416 185.107 283.103ZM127.884 198.405C120.548 199.96 115.843 207.183 117.396 214.505C118.949 221.827 125.997 226.381 133.19 225.029C143.894 223.018 155.06 226.789 162.333 234.875C169.607 242.961 172.168 254.447 169.021 264.857C168.364 267.028 168.272 269.271 168.749 271.52C170.302 278.843 177.533 283.534 184.868 281.979C192.204 280.423 196.909 273.201 195.356 265.879C194.879 263.63 193.885 261.616 192.403 259.899C185.302 251.662 182.981 240.121 186.348 229.783C189.715 219.445 198.389 211.463 208.987 208.957C216.107 207.274 220.668 200.082 219.152 192.929C217.635 185.776 210.368 180.915 203.032 182.47C198.368 183.459 194.623 186.761 193.015 191.303C189.395 201.522 180.545 209.266 169.928 211.517C159.311 213.768 148.079 210.279 140.623 202.412C137.31 198.913 132.548 197.416 127.884 198.405Z" fill="white"/>
<path d="M284.313 312.283C276.356 313.97 268.509 308.879 266.825 300.936C266.307 298.495 266.405 296.061 267.121 293.701C270.153 283.674 267.684 272.608 260.679 264.823C253.673 257.034 242.918 253.4 232.609 255.338C224.806 256.804 217.117 251.683 215.471 243.921C213.826 236.159 218.893 228.14 226.85 226.453C231.91 225.38 237.073 227.004 240.668 230.793C247.85 238.372 258.665 241.734 268.894 239.565C279.123 237.396 287.643 229.934 291.132 220.093C292.876 215.172 296.939 211.591 301.999 210.518C309.956 208.831 317.803 213.922 319.488 221.865C321.172 229.808 316.185 237.428 308.459 239.255C298.25 241.667 289.895 249.353 286.653 259.315C283.411 269.277 285.645 280.389 292.485 288.323C294.093 290.191 295.175 292.374 295.692 294.815C297.376 302.758 292.271 310.596 284.313 312.283ZM227.09 227.585C219.755 229.14 215.05 236.363 216.603 243.685C218.155 251.007 225.203 255.561 232.397 254.208C243.101 252.198 254.266 255.969 261.54 264.055C268.813 272.141 271.375 283.627 268.228 294.036C267.57 296.208 267.479 298.451 267.955 300.696C269.508 308.019 276.739 312.71 284.074 311.155C291.41 309.599 296.114 302.377 294.562 295.055C294.085 292.806 293.092 290.796 291.61 289.078C284.509 280.842 282.188 269.301 285.555 258.963C288.921 248.621 297.595 240.643 308.194 238.136C315.313 236.454 319.875 229.262 318.358 222.109C316.841 214.956 309.575 210.095 302.239 211.65C297.575 212.639 293.834 215.94 292.222 220.482C288.601 230.701 279.751 238.445 269.134 240.697C258.517 242.948 247.285 239.458 239.83 231.592C236.517 228.093 231.755 226.596 227.09 227.585Z" fill="white"/>
<path d="M284.313 312.283C276.356 313.97 268.509 308.879 266.825 300.936C266.307 298.495 266.405 296.061 267.121 293.701C270.153 283.674 267.684 272.608 260.679 264.823C253.673 257.034 242.918 253.4 232.609 255.338C224.806 256.804 217.117 251.683 215.471 243.921C213.826 236.159 218.893 228.14 226.85 226.453C231.91 225.38 237.073 227.004 240.668 230.793C247.85 238.372 258.665 241.734 268.894 239.565C279.123 237.396 287.643 229.934 291.132 220.093C292.876 215.172 296.939 211.591 301.999 210.518C309.956 208.831 317.803 213.922 319.488 221.865C321.172 229.808 316.185 237.428 308.459 239.255C298.25 241.667 289.895 249.353 286.653 259.315C283.411 269.277 285.645 280.389 292.485 288.323C294.093 290.191 295.175 292.374 295.692 294.815C297.376 302.758 292.271 310.596 284.313 312.283ZM227.09 227.585C219.755 229.14 215.05 236.363 216.603 243.685C218.155 251.007 225.203 255.561 232.397 254.208C243.101 252.198 254.266 255.969 261.54 264.055C268.813 272.141 271.375 283.627 268.228 294.036C267.57 296.208 267.479 298.451 267.955 300.696C269.508 308.019 276.739 312.71 284.074 311.155C291.41 309.599 296.114 302.377 294.562 295.055C294.085 292.806 293.092 290.796 291.61 289.078C284.509 280.842 282.188 269.301 285.555 258.963C288.921 248.621 297.595 240.643 308.194 238.136C315.313 236.454 319.875 229.262 318.358 222.109C316.841 214.956 309.575 210.095 302.239 211.65C297.575 212.639 293.834 215.94 292.222 220.482C288.601 230.701 279.751 238.445 269.134 240.697C258.517 242.948 247.285 239.458 239.83 231.592C236.517 228.093 231.755 226.596 227.09 227.585Z" fill="white"/>
<path d="M17.2861 318.688C9.32887 320.375 1.48234 315.287 -0.202638 307.341C-0.720174 304.9 -0.62204 302.466 0.0939936 300.106C3.12529 290.079 0.656864 279.013 -6.34824 271.228C-13.3541 263.439 -24.1089 259.805 -34.4184 261.743C-42.2217 263.209 -49.91 258.088 -51.5559 250.326C-53.2018 242.563 -48.1343 234.545 -40.1771 232.857C-35.1172 231.785 -29.9538 233.409 -26.3592 237.198C-19.1774 244.777 -8.36219 248.138 1.86687 245.969C12.0959 243.8 20.6161 236.339 24.1042 226.498C25.8482 221.577 29.9117 217.996 34.9716 216.923C42.9288 215.236 50.7761 220.327 52.4603 228.27C54.1445 236.213 49.1579 243.833 41.4311 245.66C31.2222 248.072 22.8677 255.758 19.6257 265.72C16.3829 275.678 18.6177 286.794 25.4575 294.728C27.0661 296.595 28.1473 298.779 28.6648 301.22C30.349 309.163 25.2433 317.001 17.2861 318.688ZM-39.9371 233.989C-47.2726 235.545 -51.9774 242.767 -50.4248 250.09C-48.8722 257.412 -41.824 261.965 -34.6304 260.613C-23.9268 258.603 -12.7611 262.374 -5.48748 270.46C1.7861 278.545 4.34761 290.032 1.2005 300.441C0.542769 302.612 0.451578 304.856 0.928444 307.105C2.48105 314.427 9.71209 319.119 17.0476 317.563C24.3832 316.008 29.0879 308.785 27.5353 301.463C27.0584 299.214 26.0646 297.201 24.5823 295.483C17.4815 287.247 15.1603 275.706 18.5273 265.367C21.8942 255.029 30.5679 247.048 41.1663 244.541C48.2859 242.859 52.8475 235.666 51.3308 228.513C49.8141 221.36 42.5472 216.5 35.2116 218.055C30.5473 219.044 26.8025 222.345 25.1947 226.887C21.5741 237.106 12.724 244.85 2.1069 247.101C-8.51022 249.353 -19.7423 245.863 -27.1977 237.997C-30.5104 234.498 -35.2728 233 -39.9371 233.989Z" fill="white"/>
<path d="M17.2861 318.688C9.32887 320.375 1.48234 315.287 -0.202638 307.341C-0.720174 304.9 -0.62204 302.466 0.0939936 300.106C3.12529 290.079 0.656864 279.013 -6.34824 271.228C-13.3541 263.439 -24.1089 259.805 -34.4184 261.743C-42.2217 263.209 -49.91 258.088 -51.5559 250.326C-53.2018 242.563 -48.1343 234.545 -40.1771 232.857C-35.1172 231.785 -29.9538 233.409 -26.3592 237.198C-19.1774 244.777 -8.36219 248.138 1.86687 245.969C12.0959 243.8 20.6161 236.339 24.1042 226.498C25.8482 221.577 29.9117 217.996 34.9716 216.923C42.9288 215.236 50.7761 220.327 52.4603 228.27C54.1445 236.213 49.1579 243.833 41.4311 245.66C31.2222 248.072 22.8677 255.758 19.6257 265.72C16.3829 275.678 18.6177 286.794 25.4575 294.728C27.0661 296.595 28.1473 298.779 28.6648 301.22C30.349 309.163 25.2433 317.001 17.2861 318.688ZM-39.9371 233.989C-47.2726 235.545 -51.9774 242.767 -50.4248 250.09C-48.8722 257.412 -41.824 261.965 -34.6304 260.613C-23.9268 258.603 -12.7611 262.374 -5.48748 270.46C1.7861 278.545 4.34761 290.032 1.2005 300.441C0.542769 302.612 0.451578 304.856 0.928444 307.105C2.48105 314.427 9.71209 319.119 17.0476 317.563C24.3832 316.008 29.0879 308.785 27.5353 301.463C27.0584 299.214 26.0646 297.201 24.5823 295.483C17.4815 287.247 15.1603 275.706 18.5273 265.367C21.8942 255.029 30.5679 247.048 41.1663 244.541C48.2859 242.859 52.8475 235.666 51.3308 228.513C49.8141 221.36 42.5472 216.5 35.2116 218.055C30.5473 219.044 26.8025 222.345 25.1947 226.887C21.5741 237.106 12.724 244.85 2.1069 247.101C-8.51022 249.353 -19.7423 245.863 -27.1977 237.997C-30.5104 234.498 -35.2728 233 -39.9371 233.989Z" fill="white"/>
<path d="M112.529 352.253C104.572 353.94 96.7247 348.849 95.0405 340.906C94.523 338.465 94.6211 336.032 95.3372 333.671C98.3685 323.644 95.9 312.578 88.8949 304.793C81.889 297.004 71.1342 293.37 60.8248 295.309C53.0215 296.774 45.3332 291.653 43.6873 283.891C42.0414 276.129 47.1088 268.11 55.066 266.423C60.1259 265.35 65.2893 266.975 68.884 270.763C76.0658 278.342 86.881 281.704 97.11 279.535C107.339 277.366 115.859 269.904 119.347 260.063C121.091 255.142 125.155 251.561 130.215 250.488C138.172 248.801 146.018 253.889 147.703 261.835C149.388 269.782 144.401 277.398 136.674 279.225C126.465 281.638 118.111 289.324 114.869 299.286C111.627 309.247 113.861 320.359 120.701 328.293C122.309 330.161 123.39 332.344 123.908 334.785C125.592 342.728 120.486 350.566 112.529 352.253ZM55.3061 267.555C47.9705 269.11 43.2658 276.333 44.8184 283.655C46.371 290.977 53.4192 295.531 60.6127 294.178C71.3164 292.168 82.4821 295.939 89.7557 304.025C97.0293 312.111 99.5908 323.597 96.4437 334.006C95.7859 336.178 95.6947 338.421 96.1708 340.667C97.7234 347.989 104.954 352.68 112.29 351.125C119.626 349.57 124.33 342.347 122.778 335.025C122.301 332.776 121.308 330.766 119.825 329.049C112.725 320.812 110.403 309.271 113.77 298.933C117.137 288.591 125.811 280.613 136.41 278.107C143.533 276.423 148.091 269.232 146.574 262.079C145.057 254.926 137.79 250.065 130.455 251.62C125.791 252.609 122.046 255.911 120.438 260.453C116.817 270.672 107.967 278.416 97.35 280.667C86.7329 282.918 75.5009 279.428 68.0455 271.562C64.7328 268.063 59.9704 266.566 55.3061 267.555Z" fill="white"/>
<path d="M112.529 352.253C104.572 353.94 96.7247 348.849 95.0405 340.906C94.523 338.465 94.6211 336.032 95.3372 333.671C98.3685 323.644 95.9 312.578 88.8949 304.793C81.889 297.004 71.1342 293.37 60.8248 295.309C53.0215 296.774 45.3332 291.653 43.6873 283.891C42.0414 276.129 47.1088 268.11 55.066 266.423C60.1259 265.35 65.2893 266.975 68.884 270.763C76.0658 278.342 86.881 281.704 97.11 279.535C107.339 277.366 115.859 269.904 119.347 260.063C121.091 255.142 125.155 251.561 130.215 250.488C138.172 248.801 146.018 253.889 147.703 261.835C149.388 269.782 144.401 277.398 136.674 279.225C126.465 281.638 118.111 289.324 114.869 299.286C111.627 309.247 113.861 320.359 120.701 328.293C122.309 330.161 123.39 332.344 123.908 334.785C125.592 342.728 120.486 350.566 112.529 352.253ZM55.3061 267.555C47.9705 269.11 43.2658 276.333 44.8184 283.655C46.371 290.977 53.4192 295.531 60.6127 294.178C71.3164 292.168 82.4821 295.939 89.7557 304.025C97.0293 312.111 99.5908 323.597 96.4437 334.006C95.7859 336.178 95.6947 338.421 96.1708 340.667C97.7234 347.989 104.954 352.68 112.29 351.125C119.626 349.57 124.33 342.347 122.778 335.025C122.301 332.776 121.308 330.766 119.825 329.049C112.725 320.812 110.403 309.271 113.77 298.933C117.137 288.591 125.811 280.613 136.41 278.107C143.533 276.423 148.091 269.232 146.574 262.079C145.057 254.926 137.79 250.065 130.455 251.62C125.791 252.609 122.046 255.911 120.438 260.453C116.817 270.672 107.967 278.416 97.35 280.667C86.7329 282.918 75.5009 279.428 68.0455 271.562C64.7328 268.063 59.9704 266.566 55.3061 267.555Z" fill="white"/>
<path d="M206.168 382.433C198.211 384.12 190.365 379.032 188.68 371.086C188.162 368.645 188.26 366.211 188.976 363.851C192.008 353.824 189.539 342.758 182.534 334.973C175.528 327.184 164.773 323.55 154.464 325.488C146.661 326.954 138.972 321.833 137.326 314.071C135.681 306.308 140.748 298.29 148.705 296.603C153.765 295.53 158.928 297.154 162.523 300.943C169.705 308.522 180.52 311.883 190.749 309.715C200.978 307.546 209.498 300.084 212.986 290.243C214.731 285.322 218.794 281.741 223.854 280.668C231.811 278.981 239.658 284.072 241.343 292.015C243.027 299.958 238.04 307.578 230.313 309.405C220.104 311.817 211.75 319.503 208.508 329.465C205.265 339.423 207.5 350.539 214.34 358.473C215.948 360.34 217.03 362.524 217.547 364.965C219.231 372.908 214.126 380.746 206.168 382.433ZM148.945 297.735C141.61 299.29 136.905 306.513 138.458 313.835C140.01 321.157 147.058 325.711 154.252 324.358C164.956 322.348 176.121 326.119 183.395 334.205C190.668 342.291 193.23 353.777 190.083 364.186C189.425 366.357 189.334 368.601 189.811 370.85C191.363 378.172 198.594 382.864 205.93 381.308C213.265 379.753 217.97 372.531 216.418 365.208C215.941 362.959 214.947 360.946 213.465 359.228C206.364 350.992 204.043 339.451 207.41 329.113C210.777 318.774 219.45 310.793 230.049 308.286C237.168 306.604 241.73 299.412 240.213 292.259C238.696 285.106 231.429 280.245 224.094 281.8C219.43 282.789 215.685 286.09 214.077 290.632C210.456 300.851 201.606 308.595 190.989 310.847C180.372 313.098 169.14 309.608 161.685 301.742C158.372 298.243 153.61 296.746 148.945 297.735Z" fill="white"/>
<path d="M206.168 382.433C198.211 384.12 190.365 379.032 188.68 371.086C188.162 368.645 188.26 366.211 188.976 363.851C192.008 353.824 189.539 342.758 182.534 334.973C175.528 327.184 164.773 323.55 154.464 325.488C146.661 326.954 138.972 321.833 137.326 314.071C135.681 306.308 140.748 298.29 148.705 296.603C153.765 295.53 158.928 297.154 162.523 300.943C169.705 308.522 180.52 311.883 190.749 309.715C200.978 307.546 209.498 300.084 212.986 290.243C214.731 285.322 218.794 281.741 223.854 280.668C231.811 278.981 239.658 284.072 241.343 292.015C243.027 299.958 238.04 307.578 230.313 309.405C220.104 311.817 211.75 319.503 208.508 329.465C205.265 339.423 207.5 350.539 214.34 358.473C215.948 360.34 217.03 362.524 217.547 364.965C219.231 372.908 214.126 380.746 206.168 382.433ZM148.945 297.735C141.61 299.29 136.905 306.513 138.458 313.835C140.01 321.157 147.058 325.711 154.252 324.358C164.956 322.348 176.121 326.119 183.395 334.205C190.668 342.291 193.23 353.777 190.083 364.186C189.425 366.357 189.334 368.601 189.811 370.85C191.363 378.172 198.594 382.864 205.93 381.308C213.265 379.753 217.97 372.531 216.418 365.208C215.941 362.959 214.947 360.946 213.465 359.228C206.364 350.992 204.043 339.451 207.41 329.113C210.777 318.774 219.45 310.793 230.049 308.286C237.168 306.604 241.73 299.412 240.213 292.259C238.696 285.106 231.429 280.245 224.094 281.8C219.43 282.789 215.685 286.09 214.077 290.632C210.456 300.851 201.606 308.595 190.989 310.847C180.372 313.098 169.14 309.608 161.685 301.742C158.372 298.243 153.61 296.746 148.945 297.735Z" fill="white"/>
<path d="M-35.2354 483.836C-43.1926 485.523 -51.0399 480.431 -52.7241 472.489C-53.2416 470.048 -53.1435 467.614 -52.4275 465.254C-49.3962 455.227 -51.8646 444.161 -58.8697 436.376C-65.8756 428.587 -76.6304 424.953 -86.9399 426.891C-94.7432 428.357 -102.431 423.236 -104.077 415.473C-105.723 407.711 -100.656 399.693 -92.6986 398.005C-87.6387 396.932 -82.4753 398.557 -78.8807 402.346C-71.6989 409.924 -60.8837 413.286 -50.6546 411.117C-40.4256 408.948 -31.9054 401.487 -28.4173 391.645C-26.6733 386.725 -22.6098 383.144 -17.5499 382.071C-9.59267 380.384 -1.74537 385.475 -0.0611837 393.418C1.623 401.361 -3.36357 408.981 -11.0903 410.808C-21.2993 413.22 -29.6538 420.906 -32.8958 430.868C-36.1378 440.83 -33.9038 451.942 -27.0639 459.876C-25.4554 461.743 -24.3742 463.927 -23.8567 466.368C-22.1725 474.31 -27.2782 482.149 -35.2354 483.836ZM-92.4586 399.137C-99.7941 400.693 -104.499 407.915 -102.946 415.238C-101.394 422.56 -94.3455 427.113 -87.1519 425.761C-76.4483 423.751 -65.2825 427.522 -58.009 435.608C-50.7354 443.693 -48.1739 455.18 -51.321 465.589C-51.9787 467.76 -52.0699 470.004 -51.5938 472.249C-50.0412 479.571 -42.8102 484.263 -35.4747 482.708C-28.1391 481.152 -23.4344 473.93 -24.987 466.607C-25.4638 464.358 -26.4569 462.349 -27.9392 460.631C-35.04 452.395 -37.3612 440.854 -33.9942 430.515C-30.6281 420.174 -21.9535 412.196 -11.3551 409.689C-4.23554 408.006 0.326054 400.814 -1.19067 393.661C-2.70739 386.508 -9.9743 381.647 -17.3098 383.203C-21.9741 384.192 -25.7152 387.492 -27.3268 392.035C-30.9474 402.254 -39.7975 409.998 -50.4146 412.249C-61.0317 414.501 -72.2638 411.011 -79.7192 403.144C-83.0319 399.646 -87.7943 398.148 -92.4586 399.137Z" fill="white"/>
<path d="M-35.2354 483.836C-43.1926 485.523 -51.0399 480.431 -52.7241 472.489C-53.2416 470.048 -53.1435 467.614 -52.4275 465.254C-49.3962 455.227 -51.8646 444.161 -58.8697 436.376C-65.8756 428.587 -76.6304 424.953 -86.9399 426.891C-94.7432 428.357 -102.431 423.236 -104.077 415.473C-105.723 407.711 -100.656 399.693 -92.6986 398.005C-87.6387 396.932 -82.4753 398.557 -78.8807 402.346C-71.6989 409.924 -60.8837 413.286 -50.6546 411.117C-40.4256 408.948 -31.9054 401.487 -28.4173 391.645C-26.6733 386.725 -22.6098 383.144 -17.5499 382.071C-9.59267 380.384 -1.74537 385.475 -0.0611837 393.418C1.623 401.361 -3.36357 408.981 -11.0903 410.808C-21.2993 413.22 -29.6538 420.906 -32.8958 430.868C-36.1378 440.83 -33.9038 451.942 -27.0639 459.876C-25.4554 461.743 -24.3742 463.927 -23.8567 466.368C-22.1725 474.31 -27.2782 482.149 -35.2354 483.836ZM-92.4586 399.137C-99.7941 400.693 -104.499 407.915 -102.946 415.238C-101.394 422.56 -94.3455 427.113 -87.1519 425.761C-76.4483 423.751 -65.2825 427.522 -58.009 435.608C-50.7354 443.693 -48.1739 455.18 -51.321 465.589C-51.9787 467.76 -52.0699 470.004 -51.5938 472.249C-50.0412 479.571 -42.8102 484.263 -35.4747 482.708C-28.1391 481.152 -23.4344 473.93 -24.987 466.607C-25.4638 464.358 -26.4569 462.349 -27.9392 460.631C-35.04 452.395 -37.3612 440.854 -33.9942 430.515C-30.6281 420.174 -21.9535 412.196 -11.3551 409.689C-4.23554 408.006 0.326054 400.814 -1.19067 393.661C-2.70739 386.508 -9.9743 381.647 -17.3098 383.203C-21.9741 384.192 -25.7152 387.492 -27.3268 392.035C-30.9474 402.254 -39.7975 409.998 -50.4146 412.249C-61.0317 414.501 -72.2638 411.011 -79.7192 403.144C-83.0319 399.646 -87.7943 398.148 -92.4586 399.137Z" fill="white"/>
<path d="M305.375 411.613C297.418 413.3 289.571 408.209 287.887 400.266C287.369 397.825 287.467 395.392 288.183 393.031C291.215 383.004 288.746 371.938 281.741 364.153C274.735 356.364 263.98 352.73 253.671 354.668C245.868 356.134 238.179 351.013 236.533 343.251C234.888 335.489 239.955 327.47 247.912 325.783C252.972 324.71 258.136 326.334 261.73 330.123C268.912 337.702 279.727 341.064 289.956 338.895C300.185 336.726 308.705 329.264 312.194 319.423C313.938 314.502 318.001 310.921 323.061 309.848C331.018 308.161 338.865 313.253 340.55 321.195C342.234 329.138 337.247 336.758 329.521 338.585C319.312 340.998 310.957 348.683 307.715 358.645C304.473 368.607 306.707 379.719 313.547 387.653C315.155 389.521 316.237 391.704 316.754 394.145C318.438 402.088 313.333 409.926 305.375 411.613ZM248.152 326.915C240.817 328.47 236.112 335.693 237.665 343.015C239.217 350.337 246.265 354.891 253.459 353.538C264.163 351.528 275.328 355.299 282.602 363.385C289.875 371.471 292.437 382.957 289.29 393.366C288.632 395.538 288.541 397.781 289.017 400.026C290.57 407.349 297.801 412.04 305.136 410.485C312.472 408.929 317.176 401.707 315.624 394.385C315.147 392.136 314.154 390.126 312.672 388.409C305.571 380.172 303.25 368.631 306.617 358.293C309.983 347.951 318.657 339.973 329.256 337.466C336.375 335.784 340.937 328.592 339.42 321.439C337.903 314.286 330.637 309.425 323.301 310.98C318.637 311.969 314.896 315.27 313.284 319.812C309.663 330.032 300.813 337.775 290.196 340.027C279.579 342.278 268.347 338.788 260.892 330.922C257.579 327.423 252.817 325.926 248.152 326.915Z" fill="white"/>
<path d="M305.375 411.613C297.418 413.3 289.571 408.209 287.887 400.266C287.369 397.825 287.467 395.392 288.183 393.031C291.215 383.004 288.746 371.938 281.741 364.153C274.735 356.364 263.98 352.73 253.671 354.668C245.868 356.134 238.179 351.013 236.533 343.251C234.888 335.489 239.955 327.47 247.912 325.783C252.972 324.71 258.136 326.334 261.73 330.123C268.912 337.702 279.727 341.064 289.956 338.895C300.185 336.726 308.705 329.264 312.194 319.423C313.938 314.502 318.001 310.921 323.061 309.848C331.018 308.161 338.865 313.253 340.55 321.195C342.234 329.138 337.247 336.758 329.521 338.585C319.312 340.998 310.957 348.683 307.715 358.645C304.473 368.607 306.707 379.719 313.547 387.653C315.155 389.521 316.237 391.704 316.754 394.145C318.438 402.088 313.333 409.926 305.375 411.613ZM248.152 326.915C240.817 328.47 236.112 335.693 237.665 343.015C239.217 350.337 246.265 354.891 253.459 353.538C264.163 351.528 275.328 355.299 282.602 363.385C289.875 371.471 292.437 382.957 289.29 393.366C288.632 395.538 288.541 397.781 289.017 400.026C290.57 407.349 297.801 412.04 305.136 410.485C312.472 408.929 317.176 401.707 315.624 394.385C315.147 392.136 314.154 390.126 312.672 388.409C305.571 380.172 303.25 368.631 306.617 358.293C309.983 347.951 318.657 339.973 329.256 337.466C336.375 335.784 340.937 328.592 339.42 321.439C337.903 314.286 330.637 309.425 323.301 310.98C318.637 311.969 314.896 315.27 313.284 319.812C309.663 330.032 300.813 337.775 290.196 340.027C279.579 342.278 268.347 338.788 260.892 330.922C257.579 327.423 252.817 325.926 248.152 326.915Z" fill="white"/>
<path d="M38.3481 418.017C30.3909 419.705 22.5444 414.617 20.8594 406.67C20.3418 404.23 20.44 401.796 21.156 399.436C24.1873 389.408 21.7189 378.342 14.7138 370.557C7.70788 362.768 -3.04692 359.134 -13.3564 361.073C-21.1597 362.539 -28.8479 357.417 -30.4939 349.655C-32.1398 341.893 -27.0723 333.874 -19.1151 332.187C-14.0552 331.114 -8.89183 332.739 -5.29717 336.527C1.88462 344.106 12.6998 347.468 22.9289 345.299C33.1579 343.13 41.6781 335.668 45.1662 325.827C46.9102 320.907 50.9737 317.325 56.0336 316.253C63.9908 314.565 71.8381 319.657 73.5223 327.6C75.2065 335.542 70.2199 343.163 62.4932 344.99C52.2842 347.402 43.9297 355.088 40.6877 365.05C37.4449 375.008 39.6797 386.123 46.5196 394.057C48.1281 395.925 49.2093 398.109 49.7268 400.549C51.411 408.492 46.3053 416.33 38.3481 418.017ZM-18.8751 333.319C-26.2106 334.874 -30.9154 342.097 -29.3628 349.419C-27.8102 356.741 -20.762 361.295 -13.5684 359.943C-2.86476 357.932 8.30095 361.703 15.5745 369.789C22.8481 377.875 25.4096 389.361 22.2625 399.771C21.6048 401.942 21.5136 404.186 21.9905 406.434C23.5431 413.757 30.7741 418.448 38.1096 416.893C45.4452 415.338 50.1499 408.115 48.5973 400.793C48.1205 398.544 47.1266 396.53 45.6443 394.813C38.5435 386.576 36.2223 375.035 39.5893 364.697C42.9562 354.359 51.63 346.377 62.2284 343.871C69.348 342.188 73.9095 334.996 72.3928 327.843C70.8761 320.69 63.6092 315.829 56.2736 317.385C51.6094 318.374 47.8645 321.675 46.2567 326.217C42.6361 336.436 33.786 344.18 23.1689 346.431C12.5518 348.682 1.31973 345.193 -6.13569 337.326C-9.44839 333.827 -14.2108 332.33 -18.8751 333.319Z" fill="white"/>
<path d="M38.3481 418.017C30.3909 419.705 22.5444 414.617 20.8594 406.67C20.3418 404.23 20.44 401.796 21.156 399.436C24.1873 389.408 21.7189 378.342 14.7138 370.557C7.70788 362.768 -3.04692 359.134 -13.3564 361.073C-21.1597 362.539 -28.8479 357.417 -30.4939 349.655C-32.1398 341.893 -27.0723 333.874 -19.1151 332.187C-14.0552 331.114 -8.89183 332.739 -5.29717 336.527C1.88462 344.106 12.6998 347.468 22.9289 345.299C33.1579 343.13 41.6781 335.668 45.1662 325.827C46.9102 320.907 50.9737 317.325 56.0336 316.253C63.9908 314.565 71.8381 319.657 73.5223 327.6C75.2065 335.542 70.2199 343.163 62.4932 344.99C52.2842 347.402 43.9297 355.088 40.6877 365.05C37.4449 375.008 39.6797 386.123 46.5196 394.057C48.1281 395.925 49.2093 398.109 49.7268 400.549C51.411 408.492 46.3053 416.33 38.3481 418.017ZM-18.8751 333.319C-26.2106 334.874 -30.9154 342.097 -29.3628 349.419C-27.8102 356.741 -20.762 361.295 -13.5684 359.943C-2.86476 357.932 8.30095 361.703 15.5745 369.789C22.8481 377.875 25.4096 389.361 22.2625 399.771C21.6048 401.942 21.5136 404.186 21.9905 406.434C23.5431 413.757 30.7741 418.448 38.1096 416.893C45.4452 415.338 50.1499 408.115 48.5973 400.793C48.1205 398.544 47.1266 396.53 45.6443 394.813C38.5435 386.576 36.2223 375.035 39.5893 364.697C42.9562 354.359 51.63 346.377 62.2284 343.871C69.348 342.188 73.9095 334.996 72.3928 327.843C70.8761 320.69 63.6092 315.829 56.2736 317.385C51.6094 318.374 47.8645 321.675 46.2567 326.217C42.6361 336.436 33.786 344.18 23.1689 346.431C12.5518 348.682 1.31973 345.193 -6.13569 337.326C-9.44839 333.827 -14.2108 332.33 -18.8751 333.319Z" fill="white"/>
<path d="M133.592 451.587C125.635 453.274 117.787 448.182 116.103 440.24C115.585 437.799 115.684 435.365 116.4 433.005C119.431 422.978 116.963 411.912 109.957 404.127C102.952 396.338 92.1967 392.704 81.8873 394.642C74.084 396.108 66.3957 390.987 64.7498 383.224C63.1039 375.462 68.1713 367.444 76.1285 365.756C81.1884 364.683 86.3518 366.308 89.9465 370.097C97.1283 377.675 107.943 381.037 118.173 378.868C128.402 376.699 136.922 369.238 140.41 359.396C142.153 354.472 146.217 350.895 151.277 349.822C159.234 348.135 167.081 353.222 168.766 361.169C170.451 369.115 165.464 376.732 157.737 378.559C147.528 380.971 139.173 388.657 135.931 398.619C132.689 408.581 134.924 419.696 141.763 427.627C143.372 429.494 144.453 431.678 144.97 434.119C146.655 442.061 141.549 449.9 133.592 451.587ZM76.3686 366.888C69.033 368.444 64.3283 375.666 65.8809 382.989C67.4335 390.311 74.4817 394.864 81.6752 393.512C92.3789 391.502 103.545 395.273 110.818 403.358C118.092 411.444 120.653 422.931 117.506 433.34C116.848 435.511 116.757 437.755 117.233 440C118.786 447.322 126.017 452.014 133.352 450.459C140.688 448.903 145.393 441.681 143.84 434.358C143.363 432.109 142.37 430.1 140.888 428.382C133.787 420.146 131.466 408.605 134.833 398.266C138.199 387.924 146.874 379.947 157.472 377.44C164.595 375.757 169.153 368.565 167.636 361.412C166.12 354.259 158.853 349.398 151.517 350.954C146.853 351.943 143.108 355.244 141.5 359.786C137.88 370.005 129.03 377.749 118.413 380C107.795 382.252 96.5634 378.762 89.108 370.895C85.7953 367.397 81.0329 365.899 76.3686 366.888Z" fill="white"/>
<path d="M133.592 451.587C125.635 453.274 117.787 448.182 116.103 440.24C115.585 437.799 115.684 435.365 116.4 433.005C119.431 422.978 116.963 411.912 109.957 404.127C102.952 396.338 92.1967 392.704 81.8873 394.642C74.084 396.108 66.3957 390.987 64.7498 383.224C63.1039 375.462 68.1713 367.444 76.1285 365.756C81.1884 364.683 86.3518 366.308 89.9465 370.097C97.1283 377.675 107.943 381.037 118.173 378.868C128.402 376.699 136.922 369.238 140.41 359.396C142.153 354.472 146.217 350.895 151.277 349.822C159.234 348.135 167.081 353.222 168.766 361.169C170.451 369.115 165.464 376.732 157.737 378.559C147.528 380.971 139.173 388.657 135.931 398.619C132.689 408.581 134.924 419.696 141.763 427.627C143.372 429.494 144.453 431.678 144.97 434.119C146.655 442.061 141.549 449.9 133.592 451.587ZM76.3686 366.888C69.033 368.444 64.3283 375.666 65.8809 382.989C67.4335 390.311 74.4817 394.864 81.6752 393.512C92.3789 391.502 103.545 395.273 110.818 403.358C118.092 411.444 120.653 422.931 117.506 433.34C116.848 435.511 116.757 437.755 117.233 440C118.786 447.322 126.017 452.014 133.352 450.459C140.688 448.903 145.393 441.681 143.84 434.358C143.363 432.109 142.37 430.1 140.888 428.382C133.787 420.146 131.466 408.605 134.833 398.266C138.199 387.924 146.874 379.947 157.472 377.44C164.595 375.757 169.153 368.565 167.636 361.412C166.12 354.259 158.853 349.398 151.517 350.954C146.853 351.943 143.108 355.244 141.5 359.786C137.88 370.005 129.03 377.749 118.413 380C107.795 382.252 96.5634 378.762 89.108 370.895C85.7953 367.397 81.0329 365.899 76.3686 366.888Z" fill="white"/>
<path d="M227.23 481.763C219.273 483.45 211.427 478.362 209.742 470.416C209.224 467.975 209.322 465.541 210.038 463.181C213.07 453.153 210.601 442.088 203.596 434.302C196.59 426.513 185.835 422.879 175.526 424.818C167.723 426.284 160.034 421.162 158.388 413.4C156.743 405.638 161.81 397.619 169.767 395.932C174.827 394.859 179.99 396.484 183.585 400.272C190.767 407.851 201.582 411.213 211.811 409.044C222.04 406.875 230.56 399.413 234.048 389.572C235.793 384.652 239.856 381.071 244.916 379.998C252.873 378.31 260.72 383.402 262.405 391.345C264.089 399.287 259.102 406.908 251.375 408.735C241.167 411.147 232.812 418.833 229.57 428.795C226.327 438.753 228.562 449.868 235.402 457.803C237.01 459.67 238.092 461.854 238.609 464.294C240.293 472.237 235.188 480.075 227.23 481.763ZM170.007 397.064C162.672 398.62 157.967 405.842 159.52 413.164C161.072 420.487 168.12 425.04 175.314 423.688C186.018 421.677 197.183 425.448 204.457 433.534C211.73 441.62 214.292 453.106 211.145 463.516C210.487 465.687 210.396 467.931 210.873 470.18C212.425 477.502 219.656 482.193 226.992 480.638C234.327 479.083 239.032 471.86 237.48 464.538C237.003 462.289 236.009 460.275 234.527 458.558C227.426 450.321 225.105 438.78 228.472 428.442C231.839 418.104 240.512 410.122 251.111 407.616C258.23 405.933 262.792 398.741 261.275 391.588C259.758 384.435 252.492 379.574 245.156 381.13C240.492 382.119 236.747 385.42 235.139 389.962C231.518 400.181 222.668 407.925 212.051 410.176C201.434 412.427 190.202 408.938 182.747 401.071C179.434 397.573 174.672 396.075 170.007 397.064Z" fill="white"/>
<path d="M227.23 481.763C219.273 483.45 211.427 478.362 209.742 470.416C209.224 467.975 209.322 465.541 210.038 463.181C213.07 453.153 210.601 442.088 203.596 434.302C196.59 426.513 185.835 422.879 175.526 424.818C167.723 426.284 160.034 421.162 158.388 413.4C156.743 405.638 161.81 397.619 169.767 395.932C174.827 394.859 179.99 396.484 183.585 400.272C190.767 407.851 201.582 411.213 211.811 409.044C222.04 406.875 230.56 399.413 234.048 389.572C235.793 384.652 239.856 381.071 244.916 379.998C252.873 378.31 260.72 383.402 262.405 391.345C264.089 399.287 259.102 406.908 251.375 408.735C241.167 411.147 232.812 418.833 229.57 428.795C226.327 438.753 228.562 449.868 235.402 457.803C237.01 459.67 238.092 461.854 238.609 464.294C240.293 472.237 235.188 480.075 227.23 481.763ZM170.007 397.064C162.672 398.62 157.967 405.842 159.52 413.164C161.072 420.487 168.12 425.04 175.314 423.688C186.018 421.677 197.183 425.448 204.457 433.534C211.73 441.62 214.292 453.106 211.145 463.516C210.487 465.687 210.396 467.931 210.873 470.18C212.425 477.502 219.656 482.193 226.992 480.638C234.327 479.083 239.032 471.86 237.48 464.538C237.003 462.289 236.009 460.275 234.527 458.558C227.426 450.321 225.105 438.78 228.472 428.442C231.839 418.104 240.512 410.122 251.111 407.616C258.23 405.933 262.792 398.741 261.275 391.588C259.758 384.435 252.492 379.574 245.156 381.13C240.492 382.119 236.747 385.42 235.139 389.962C231.518 400.181 222.668 407.925 212.051 410.176C201.434 412.427 190.202 408.938 182.747 401.071C179.434 397.573 174.672 396.075 170.007 397.064Z" fill="white"/>
<path d="M318.802 36.2422C310.844 37.9295 302.998 32.8417 301.313 24.8952C300.795 22.4545 300.894 20.0207 301.61 17.6603C304.641 7.63303 302.173 -3.43274 295.167 -11.2179C288.162 -19.0069 277.407 -22.6409 267.097 -20.7025C259.294 -19.2365 251.606 -24.3578 249.96 -32.12C248.314 -39.8823 253.381 -47.9009 261.339 -49.5881C266.398 -50.661 271.562 -49.0364 275.156 -45.2478C282.338 -37.6691 293.153 -34.3072 303.383 -36.4762C313.612 -38.6452 322.132 -46.1069 325.62 -55.948C327.364 -60.8686 331.427 -64.4497 336.487 -65.5226C344.444 -67.2099 352.292 -62.1184 353.976 -54.1756C355.66 -46.2328 350.674 -38.6126 342.947 -36.7856C332.738 -34.3733 324.383 -26.6873 321.141 -16.7254C317.898 -6.76727 320.133 4.34802 326.973 12.2822C328.582 14.1497 329.663 16.3334 330.18 18.7742C331.865 26.7169 326.759 34.555 318.802 36.2422ZM261.579 -48.4561C254.243 -46.9007 249.538 -39.6782 251.091 -32.3559C252.643 -25.0337 259.692 -20.4801 266.885 -21.8326C277.589 -23.8428 288.755 -20.0719 296.028 -11.986C303.302 -3.90011 305.863 7.58606 302.716 17.9955C302.058 20.1667 301.967 22.4104 302.444 24.6593C303.997 31.9815 311.228 36.6732 318.563 35.1178C325.899 33.5623 330.604 26.3398 329.051 19.0176C328.574 16.7686 327.58 14.7551 326.098 13.0376C318.997 4.80115 316.676 -6.7399 320.043 -17.0781C323.41 -27.4162 332.084 -35.3978 342.682 -37.9045C349.802 -39.587 354.363 -46.7792 352.846 -53.9322C351.33 -61.0852 344.063 -65.946 336.727 -64.3906C332.063 -63.4016 328.318 -60.1003 326.71 -55.5583C323.09 -45.3393 314.24 -37.5955 303.623 -35.3442C293.005 -33.093 281.773 -36.5825 274.318 -44.4491C271.005 -47.9477 266.243 -49.4451 261.579 -48.4561Z" fill="white"/>
<path d="M318.802 36.2422C310.844 37.9295 302.998 32.8417 301.313 24.8952C300.795 22.4545 300.894 20.0207 301.61 17.6603C304.641 7.63303 302.173 -3.43274 295.167 -11.2179C288.162 -19.0069 277.407 -22.6409 267.097 -20.7025C259.294 -19.2365 251.606 -24.3578 249.96 -32.12C248.314 -39.8823 253.381 -47.9009 261.339 -49.5881C266.398 -50.661 271.562 -49.0364 275.156 -45.2478C282.338 -37.6691 293.153 -34.3072 303.383 -36.4762C313.612 -38.6452 322.132 -46.1069 325.62 -55.948C327.364 -60.8686 331.427 -64.4497 336.487 -65.5226C344.444 -67.2099 352.292 -62.1184 353.976 -54.1756C355.66 -46.2328 350.674 -38.6126 342.947 -36.7856C332.738 -34.3733 324.383 -26.6873 321.141 -16.7254C317.898 -6.76727 320.133 4.34802 326.973 12.2822C328.582 14.1497 329.663 16.3334 330.18 18.7742C331.865 26.7169 326.759 34.555 318.802 36.2422ZM261.579 -48.4561C254.243 -46.9007 249.538 -39.6782 251.091 -32.3559C252.643 -25.0337 259.692 -20.4801 266.885 -21.8326C277.589 -23.8428 288.755 -20.0719 296.028 -11.986C303.302 -3.90011 305.863 7.58606 302.716 17.9955C302.058 20.1667 301.967 22.4104 302.444 24.6593C303.997 31.9815 311.228 36.6732 318.563 35.1178C325.899 33.5623 330.604 26.3398 329.051 19.0176C328.574 16.7686 327.58 14.7551 326.098 13.0376C318.997 4.80115 316.676 -6.7399 320.043 -17.0781C323.41 -27.4162 332.084 -35.3978 342.682 -37.9045C349.802 -39.587 354.363 -46.7792 352.846 -53.9322C351.33 -61.0852 344.063 -65.946 336.727 -64.3906C332.063 -63.4016 328.318 -60.1003 326.71 -55.5583C323.09 -45.3393 314.24 -37.5955 303.623 -35.3442C293.005 -33.093 281.773 -36.5825 274.318 -44.4491C271.005 -47.9477 266.243 -49.4451 261.579 -48.4561Z" fill="white"/>
<path d="M339.863 135.572C331.906 137.259 324.06 132.171 322.375 124.225C321.857 121.784 321.955 119.35 322.671 116.99C325.702 106.963 323.234 95.8968 316.229 88.1116C309.223 80.3227 298.468 76.6887 288.159 78.6271C280.355 80.0931 272.667 74.9718 271.021 67.2095C269.375 59.4473 274.443 51.4287 282.4 49.7415C287.46 48.6686 292.623 50.2932 296.218 54.0818C303.4 61.6605 314.215 65.0224 324.444 62.8534C334.673 60.6844 343.193 53.2227 346.681 43.3816C348.425 38.461 352.489 34.8799 357.549 33.807C365.506 32.1197 373.353 37.2112 375.037 45.154C376.722 53.0968 371.735 60.717 364.008 62.544C353.799 64.9563 345.445 72.6422 342.203 82.6041C338.96 92.5623 341.195 103.678 348.035 111.612C349.643 113.479 350.724 115.663 351.242 118.104C352.926 126.047 347.82 133.885 339.863 135.572ZM282.64 50.8735C275.305 52.4289 270.6 59.6514 272.152 66.9736C273.705 74.2959 280.753 78.8494 287.947 77.497C298.65 75.4868 309.816 79.2577 317.09 87.3436C324.363 95.4295 326.925 106.916 323.778 117.325C323.12 119.496 323.029 121.74 323.506 123.989C325.058 131.311 332.289 136.003 339.625 134.447C346.96 132.892 351.665 125.669 350.113 118.347C349.636 116.098 348.642 114.085 347.159 112.367C340.059 104.131 337.737 92.5897 341.104 82.2515C344.471 71.9133 353.145 63.9318 363.743 61.4251C370.863 59.7426 375.425 52.5504 373.908 45.3974C372.391 38.2444 365.124 33.3835 357.789 34.939C353.124 35.928 349.38 39.2293 347.772 43.7712C344.151 53.9903 335.301 61.7341 324.684 63.9854C314.067 66.2366 302.835 62.7471 295.379 54.8805C292.067 51.3819 287.304 49.8845 282.64 50.8735Z" fill="white"/>
<path d="M339.863 135.572C331.906 137.259 324.06 132.171 322.375 124.225C321.857 121.784 321.955 119.35 322.671 116.99C325.702 106.963 323.234 95.8968 316.229 88.1116C309.223 80.3227 298.468 76.6887 288.159 78.6271C280.355 80.0931 272.667 74.9718 271.021 67.2095C269.375 59.4473 274.443 51.4287 282.4 49.7415C287.46 48.6686 292.623 50.2932 296.218 54.0818C303.4 61.6605 314.215 65.0224 324.444 62.8534C334.673 60.6844 343.193 53.2227 346.681 43.3816C348.425 38.461 352.489 34.8799 357.549 33.807C365.506 32.1197 373.353 37.2112 375.037 45.154C376.722 53.0968 371.735 60.717 364.008 62.544C353.799 64.9563 345.445 72.6422 342.203 82.6041C338.96 92.5623 341.195 103.678 348.035 111.612C349.643 113.479 350.724 115.663 351.242 118.104C352.926 126.047 347.82 133.885 339.863 135.572ZM282.64 50.8735C275.305 52.4289 270.6 59.6514 272.152 66.9736C273.705 74.2959 280.753 78.8494 287.947 77.497C298.65 75.4868 309.816 79.2577 317.09 87.3436C324.363 95.4295 326.925 106.916 323.778 117.325C323.12 119.496 323.029 121.74 323.506 123.989C325.058 131.311 332.289 136.003 339.625 134.447C346.96 132.892 351.665 125.669 350.113 118.347C349.636 116.098 348.642 114.085 347.159 112.367C340.059 104.131 337.737 92.5897 341.104 82.2515C344.471 71.9133 353.145 63.9318 363.743 61.4251C370.863 59.7426 375.425 52.5504 373.908 45.3974C372.391 38.2444 365.124 33.3835 357.789 34.939C353.124 35.928 349.38 39.2293 347.772 43.7712C344.151 53.9903 335.301 61.7341 324.684 63.9854C314.067 66.2366 302.835 62.7471 295.379 54.8805C292.067 51.3819 287.304 49.8845 282.64 50.8735Z" fill="white"/>
<path d="M363.142 245.353C355.184 247.04 347.338 241.952 345.653 234.006C345.135 231.565 345.233 229.131 345.949 226.771C348.981 216.744 346.512 205.678 339.507 197.893C332.501 190.104 321.747 186.47 311.437 188.408C303.634 189.874 295.946 184.753 294.3 176.991C292.654 169.228 297.721 161.21 305.678 159.522C310.738 158.45 315.902 160.074 319.496 163.863C326.678 171.442 337.493 174.803 347.722 172.634C357.951 170.465 366.472 163.004 369.96 153.163C371.704 148.242 375.767 144.661 380.827 143.588C388.784 141.901 396.632 146.992 398.316 154.935C400 162.878 395.013 170.498 387.287 172.325C377.078 174.737 368.723 182.423 365.481 192.385C362.238 202.343 364.473 213.459 371.313 221.393C372.922 223.26 374.003 225.444 374.52 227.885C376.204 235.828 371.099 243.666 363.142 245.353ZM305.918 160.654C298.583 162.21 293.878 169.432 295.431 176.755C296.983 184.077 304.032 188.63 311.225 187.278C321.929 185.268 333.094 189.039 340.368 197.125C347.642 205.21 350.203 216.697 347.056 227.106C346.398 229.277 346.307 231.521 346.784 233.77C348.337 241.092 355.568 245.784 362.903 244.228C370.239 242.673 374.943 235.45 373.391 228.128C372.914 225.879 371.92 223.866 370.438 222.148C363.337 213.912 361.016 202.371 364.383 192.033C367.75 181.694 376.423 173.713 387.022 171.206C394.141 169.524 398.703 162.331 397.186 155.178C395.67 148.025 388.403 143.165 381.067 144.72C376.403 145.709 372.658 149.01 371.05 153.552C367.43 163.771 358.58 171.515 347.962 173.766C337.345 176.018 326.113 172.528 318.658 164.662C315.345 161.163 310.583 159.665 305.918 160.654Z" fill="white"/>
<path d="M363.142 245.353C355.184 247.04 347.338 241.952 345.653 234.006C345.135 231.565 345.233 229.131 345.949 226.771C348.981 216.744 346.512 205.678 339.507 197.893C332.501 190.104 321.747 186.47 311.437 188.408C303.634 189.874 295.946 184.753 294.3 176.991C292.654 169.228 297.721 161.21 305.678 159.522C310.738 158.45 315.902 160.074 319.496 163.863C326.678 171.442 337.493 174.803 347.722 172.634C357.951 170.465 366.472 163.004 369.96 153.163C371.704 148.242 375.767 144.661 380.827 143.588C388.784 141.901 396.632 146.992 398.316 154.935C400 162.878 395.013 170.498 387.287 172.325C377.078 174.737 368.723 182.423 365.481 192.385C362.238 202.343 364.473 213.459 371.313 221.393C372.922 223.26 374.003 225.444 374.52 227.885C376.204 235.828 371.099 243.666 363.142 245.353ZM305.918 160.654C298.583 162.21 293.878 169.432 295.431 176.755C296.983 184.077 304.032 188.63 311.225 187.278C321.929 185.268 333.094 189.039 340.368 197.125C347.642 205.21 350.203 216.697 347.056 227.106C346.398 229.277 346.307 231.521 346.784 233.77C348.337 241.092 355.568 245.784 362.903 244.228C370.239 242.673 374.943 235.45 373.391 228.128C372.914 225.879 371.92 223.866 370.438 222.148C363.337 213.912 361.016 202.371 364.383 192.033C367.75 181.694 376.423 173.713 387.022 171.206C394.141 169.524 398.703 162.331 397.186 155.178C395.67 148.025 388.403 143.165 381.067 144.72C376.403 145.709 372.658 149.01 371.05 153.552C367.43 163.771 358.58 171.515 347.962 173.766C337.345 176.018 326.113 172.528 318.658 164.662C315.345 161.163 310.583 159.665 305.918 160.654Z" fill="white"/>
<path d="M384.203 344.682C376.246 346.37 368.399 341.282 366.714 333.335C366.197 330.895 366.295 328.461 367.011 326.101C370.042 316.073 367.574 305.007 360.569 297.222C353.563 289.433 342.808 285.799 332.499 287.738C324.695 289.204 317.007 284.082 315.361 276.32C313.715 268.558 318.783 260.539 326.74 258.852C331.8 257.779 336.963 259.404 340.558 263.192C347.74 270.771 358.555 274.133 368.784 271.964C379.013 269.795 387.533 262.333 391.021 252.492C392.765 247.572 396.829 243.99 401.889 242.918C409.846 241.23 417.693 246.322 419.377 254.265C421.062 262.207 416.075 269.828 408.348 271.655C398.139 274.067 389.785 281.753 386.543 291.715C383.3 301.673 385.535 312.788 392.375 320.722C393.983 322.59 395.064 324.774 395.582 327.214C397.266 335.157 392.16 342.995 384.203 344.682ZM326.98 259.984C319.644 261.539 314.94 268.762 316.492 276.084C318.045 283.407 325.093 287.96 332.287 286.608C342.99 284.597 354.156 288.368 361.43 296.454C368.703 304.54 371.265 316.026 368.118 326.436C367.46 328.607 367.369 330.851 367.845 333.099C369.398 340.422 376.629 345.113 383.965 343.558C391.3 342.003 396.005 334.78 394.452 327.458C393.975 325.209 392.982 323.195 391.499 321.478C384.399 313.241 382.077 301.7 385.444 291.362C388.811 281.024 397.485 273.042 408.083 270.536C415.203 268.853 419.765 261.661 418.248 254.508C416.731 247.355 409.464 242.494 402.129 244.05C397.464 245.039 393.72 248.34 392.112 252.882C388.491 263.101 379.641 270.845 369.024 273.096C358.407 275.347 347.175 271.858 339.719 263.991C336.407 260.493 331.644 258.995 326.98 259.984Z" fill="white"/>
<path d="M384.203 344.682C376.246 346.37 368.399 341.282 366.714 333.335C366.197 330.895 366.295 328.461 367.011 326.101C370.042 316.073 367.574 305.007 360.569 297.222C353.563 289.433 342.808 285.799 332.499 287.738C324.695 289.204 317.007 284.082 315.361 276.32C313.715 268.558 318.783 260.539 326.74 258.852C331.8 257.779 336.963 259.404 340.558 263.192C347.74 270.771 358.555 274.133 368.784 271.964C379.013 269.795 387.533 262.333 391.021 252.492C392.765 247.572 396.829 243.99 401.889 242.918C409.846 241.23 417.693 246.322 419.377 254.265C421.062 262.207 416.075 269.828 408.348 271.655C398.139 274.067 389.785 281.753 386.543 291.715C383.3 301.673 385.535 312.788 392.375 320.722C393.983 322.59 395.064 324.774 395.582 327.214C397.266 335.157 392.16 342.995 384.203 344.682ZM326.98 259.984C319.644 261.539 314.94 268.762 316.492 276.084C318.045 283.407 325.093 287.96 332.287 286.608C342.99 284.597 354.156 288.368 361.43 296.454C368.703 304.54 371.265 316.026 368.118 326.436C367.46 328.607 367.369 330.851 367.845 333.099C369.398 340.422 376.629 345.113 383.965 343.558C391.3 342.003 396.005 334.78 394.452 327.458C393.975 325.209 392.982 323.195 391.499 321.478C384.399 313.241 382.077 301.7 385.444 291.362C388.811 281.024 397.485 273.042 408.083 270.536C415.203 268.853 419.765 261.661 418.248 254.508C416.731 247.355 409.464 242.494 402.129 244.05C397.464 245.039 393.72 248.34 392.112 252.882C388.491 263.101 379.641 270.845 369.024 273.096C358.407 275.347 347.175 271.858 339.719 263.991C336.407 260.493 331.644 258.995 326.98 259.984Z" fill="white"/>
<path d="M405.265 444.012C397.308 445.699 389.461 440.612 387.776 432.665C387.259 430.224 387.357 427.791 388.073 425.43C391.104 415.403 388.636 404.337 381.631 396.552C374.625 388.763 363.87 385.129 353.561 387.067C345.757 388.533 338.069 383.412 336.423 375.65C334.777 367.888 339.845 359.869 347.802 358.182C352.862 357.109 358.025 358.733 361.62 362.522C368.802 370.101 379.617 373.463 389.846 371.294C400.075 369.125 408.595 361.663 412.083 351.822C413.827 346.901 417.891 343.32 422.951 342.247C430.908 340.56 438.755 345.651 440.439 353.594C442.124 361.537 437.137 369.157 429.41 370.984C419.201 373.396 410.847 381.082 407.605 391.044C404.362 401.003 406.597 412.118 413.437 420.052C415.045 421.92 416.126 424.103 416.644 426.544C418.328 434.487 413.222 442.325 405.265 444.012ZM348.042 359.314C340.706 360.869 336.002 368.092 337.554 375.414C339.107 382.736 346.155 387.29 353.349 385.937C364.052 383.927 375.218 387.698 382.492 395.784C389.765 403.87 392.327 415.356 389.18 425.765C388.522 427.937 388.431 430.18 388.907 432.429C390.46 439.751 397.691 444.443 405.027 442.888C412.362 441.332 417.067 434.11 415.514 426.787C415.037 424.538 414.044 422.525 412.561 420.807C405.461 412.571 403.139 401.03 406.506 390.692C409.873 380.354 418.547 372.372 429.145 369.865C436.265 368.183 440.827 360.991 439.31 353.838C437.793 346.685 430.526 341.824 423.191 343.379C418.526 344.368 414.782 347.67 413.174 352.211C409.553 362.43 400.703 370.174 390.086 372.426C379.469 374.677 368.237 371.187 360.781 363.321C357.469 359.822 352.706 358.325 348.042 359.314Z" fill="white"/>
<path d="M405.265 444.012C397.308 445.699 389.461 440.612 387.776 432.665C387.259 430.224 387.357 427.791 388.073 425.43C391.104 415.403 388.636 404.337 381.631 396.552C374.625 388.763 363.87 385.129 353.561 387.067C345.757 388.533 338.069 383.412 336.423 375.65C334.777 367.888 339.845 359.869 347.802 358.182C352.862 357.109 358.025 358.733 361.62 362.522C368.802 370.101 379.617 373.463 389.846 371.294C400.075 369.125 408.595 361.663 412.083 351.822C413.827 346.901 417.891 343.32 422.951 342.247C430.908 340.56 438.755 345.651 440.439 353.594C442.124 361.537 437.137 369.157 429.41 370.984C419.201 373.396 410.847 381.082 407.605 391.044C404.362 401.003 406.597 412.118 413.437 420.052C415.045 421.92 416.126 424.103 416.644 426.544C418.328 434.487 413.222 442.325 405.265 444.012ZM348.042 359.314C340.706 360.869 336.002 368.092 337.554 375.414C339.107 382.736 346.155 387.29 353.349 385.937C364.052 383.927 375.218 387.698 382.492 395.784C389.765 403.87 392.327 415.356 389.18 425.765C388.522 427.937 388.431 430.18 388.907 432.429C390.46 439.751 397.691 444.443 405.027 442.888C412.362 441.332 417.067 434.11 415.514 426.787C415.037 424.538 414.044 422.525 412.561 420.807C405.461 412.571 403.139 401.03 406.506 390.692C409.873 380.354 418.547 372.372 429.145 369.865C436.265 368.183 440.827 360.991 439.31 353.838C437.793 346.685 430.526 341.824 423.191 343.379C418.526 344.368 414.782 347.67 413.174 352.211C409.553 362.43 400.703 370.174 390.086 372.426C379.469 374.677 368.237 371.187 360.781 363.321C357.469 359.822 352.706 358.325 348.042 359.314Z" fill="white"/>
</g>
<path d="M150.75 175.847C156.223 181.651 165.647 181.982 171.502 176.577C177.352 171.176 177.708 161.727 172.267 156.159C166.784 150.546 157.641 150.265 151.749 155.53C145.746 160.887 145.296 170.072 150.745 175.852L150.75 175.847Z" fill="white"/>
<path d="M219.816 230.595C213.705 236.047 213.199 244.91 218.666 250.819C224.092 256.683 233.253 257.003 239.326 251.53C245.194 246.24 245.71 237.287 240.483 231.455C235.209 225.573 225.896 225.18 219.816 230.595Z" fill="white"/>
<path d="M121.781 274.214C127.254 280.2 136.174 280.635 142.367 275.21C148.513 269.826 149.038 260.883 143.555 254.997C138.165 249.211 129.177 248.764 123.175 253.991C117.02 259.346 116.4 268.328 121.781 274.214Z" fill="white"/>
<path d="M217.289 185.127C211.057 178.462 200.547 179.118 195.335 186.654C193.538 189.25 192.292 192.209 190.839 195.025C181.672 212.799 158.941 217.439 143.549 204.683C141.544 203.022 139.614 201.229 137.424 199.842C131.869 196.324 125.09 196.901 120.183 201.088C115.276 205.274 113.687 212.036 116.274 217.702C118.97 223.598 124.681 226.941 131.294 225.912C138.358 224.816 145.232 224.655 151.907 227.493C165.977 233.473 172.862 248.03 168.62 263.275C167.058 268.893 167.343 273.982 171.464 278.416C176.817 284.182 185.545 284.641 191.585 279.517C197.922 274.146 198.771 265.432 193.3 259.317C187.332 252.653 184.216 245.001 185.147 236.132C186.506 223.077 193.915 214.41 206.347 209.755C208.492 208.951 210.726 208.333 212.797 207.377C221.95 203.152 224.099 192.406 217.289 185.127Z" fill="white"/>
<defs>
<clipPath id="clip0_0_1">
<rect width="636.505" height="776.742" fill="white" transform="translate(-235 -201.971) rotate(-11.9717)"/>
</clipPath>
</defs>
</svg>
